<svg version="1.1" viewBox="0.0 0.0 625.9055118110236 713.7506561679791" fill="none" stroke="none" stroke-linecap="square" stroke-miterlimit="10" xmlns:xlink="http://www.w3.org/1999/xlink" xmlns="http://www.w3.org/2000/svg"><clipPath id="p.0"><path d="m0 0l625.9055 0l0 713.7507l-625.9055 0l0 -713.7507z" clip-rule="nonzero"/></clipPath><g clip-path="url(#p.0)"><path fill="#000000" fill-opacity="0.0" d="m0 0l625.9055 0l0 713.7507l-625.9055 0z" fill-rule="evenodd"/><g filter="url(#shadowFilter-p.1)"><use xlink:href="#p.1" transform="matrix(1.0 0.0 0.0 1.0 0.0 2.0)"/></g><defs><filter id="shadowFilter-p.1" filterUnits="userSpaceOnUse"><feGaussianBlur in="SourceAlpha" stdDeviation="2.0" result="blur"/><feComponentTransfer in="blur" color-interpolation-filters="sRGB"><feFuncR type="linear" slope="0" intercept="0.0"/><feFuncG type="linear" slope="0" intercept="0.0"/><feFuncB type="linear" slope="0" intercept="0.0"/><feFuncA type="linear" slope="0.5" intercept="0"/></feComponentTransfer></filter></defs><g id="p.1"><path fill="#000000" d="m0.0017616798 -0.0013700788l625.8898 0l0 714.1417l-625.8898 0z" fill-rule="evenodd"/></g><path fill="#f1c40f" d="m183.45358 248.44687c0.86213684 0.7981262 2.3708954 1.6960144 4.526245 2.6936646c2.155365 0.9976654 4.741791 1.4964905 7.7592926 1.4964752c4.3106995 0.7981262 8.405884 2.7934418 12.285522 5.9859467c0.8621521 0 2.3708954 0.39907837 4.526245 1.1972046c2.155365 0.7980957 4.3107147 1.6960144 6.4660797 2.6936646c2.1553497 0.99765015 4.202942 2.0950623 6.142761 3.2922668c1.9398193 1.1972046 3.1252747 2.1948547 3.5563354 2.992981c8.621429 3.192505 16.811783 7.083374 24.571075 11.672577c7.7592773 4.5892334 15.30304 9.078705 22.631256 13.468414c-3.017517 6.784088 -7.3282166 12.570557 -12.932159 17.359344c-5.6039124 4.788788 -12.285522 10.974335 -20.044815 18.55658c-9.05249 9.178528 -17.88945 18.357025 -26.51088 27.535553c-8.621429 9.178528 -17.889465 17.957977 -27.804108 26.338379c-1.2932129 1.1971741 -2.3708954 2.693695 -3.2330322 4.4894714c-0.86213684 1.7958069 -2.3708954 3.0927734 -4.526245 3.8908997c-1.2932129 -5.1878357 -1.9398193 -10.375671 -1.9398193 -15.563538c0 -1.9953308 0.2155304 -3.990631 0.64660645 -5.985962c0.4310608 -1.9953308 0.64660645 -3.9906616 0.64660645 -5.9859924c0 -1.9953308 -0.21554565 -4.1901855 -0.64660645 -6.584564c-0.43107605 -2.3943787 -0.64660645 -4.5892334 -0.64660645 -6.584564l1.2932129 -31.725677c0 -8.779449 0.10775757 -17.65863 0.32330322 -26.637604c0.2155304 -8.978973 0.32330322 -18.057709 0.32330322 -27.236176c0 -1.596283 -0.10777283 -3.0927734 -0.32330322 -4.489502c-0.21554565 -1.3967285 -0.32330322 -2.693695 -0.32330322 -3.8908691c0.4310608 -0.7981262 0.86213684 -1.6960297 1.2932129 -2.693695c0.4310608 -0.9976654 0.64660645 -2.4941711 0.64660645 -4.4894867l1.2932129 -1.7957916zm-76.946236 -98.76842c-3.4485703 0 -6.034996 1.1972046 -7.759285 3.5915985l0.64660645 9.57756c0 12.371017 -0.64660645 24.742035 -1.9398193 37.113052c0 2.793457 -0.21553802 5.586914 -0.64660645 8.380371c-0.43106842 2.793457 -0.64660645 5.586914 -0.64660645 8.380371c0 5.586914 0.1077652 10.874527 0.32330322 15.862839c0.21553802 4.988312 0.32330322 10.275925 0.32330322 15.8628235c0 16.760727 -0.32330322 33.62123 -0.96990967 50.581497c-0.64660645 16.960266 -0.96990967 34.618896 -0.96990967 52.97589c-0.43107605 3.5915833 -0.8621445 7.282959 -1.2932129 11.074066c-0.43107605 3.7911072 -0.64660645 7.881531 -0.64660645 12.27124c0 6.7841187 0.32330322 13.767761 0.96990967 20.950928c0.64660645 7.1831665 0.96990967 14.166809 0.96990967 20.950928c0 11.971924 -0.43107605 24.04367 -1.2932129 36.21515c-0.8621445 12.171478 -1.2932205 24.243195 -1.2932205 36.21515c0 5.187866 0.43107605 10.27594 1.2932205 15.264252c0.86213684 4.988312 1.2932129 9.876831 1.2932129 14.665649c0 2.3943481 -0.10777283 4.88855 -0.32330322 7.482422c-0.21553802 2.593933 -0.32330322 5.2876587 -0.32330322 8.081116c0 4.7887573 0.2155304 9.976624 0.64660645 15.563538c0.43106842 5.586914 -0.64660645 10.575195 -3.2330399 14.964905c1.724289 1.5962524 1.939827 4.3897095 0.64660645 8.380371c3.0175018 3.192505 5.065094 6.4848022 6.142769 9.876831c1.0776825 3.3920898 2.4786606 6.684387 4.2029495 9.876892c1.7242813 0 3.3407974 -0.19952393 4.8495483 -0.5986328c1.5087509 -0.39904785 3.125267 -0.5985718 4.849556 -0.5985718c0.86213684 0 3.0174942 -1.5963135 6.4660645 -4.7888184c2.1553574 0 3.125267 0.39904785 2.9097366 1.1972046c-0.08621216 0.31921387 0.29312897 0.4788208 1.1380234 0.4788208c1.2673569 0 3.5822067 -0.3591919 6.944565 -1.0774536c2.5864258 0 5.1728516 0.5985718 7.7592773 1.7957764c2.155365 -0.79815674 4.202957 -1.6960449 6.1427765 -2.6937256c1.9398193 -0.99768066 4.4184723 -1.6960449 7.435974 -2.0950928c1.2932129 -0.79815674 2.6941986 -1.9953613 4.202942 -3.5916138c1.5087585 -1.5962524 3.1252747 -2.3944092 4.8495636 -2.3944092c1.7242737 0 3.2330322 0.39904785 4.526245 1.1972046c1.2932129 0.79815674 3.0175018 1.1972046 5.1728516 1.1972046l4.526245 -5.38739l0 -20.352356c0 -10.774719 -0.10775757 -21.649292 -0.32330322 -32.623535c-0.2155304 -10.974304 -0.5388336 -21.848816 -0.96990967 -32.623596l6.4660797 -4.1901855c0.4310608 -0.7981262 1.8320465 -2.3944092 4.202942 -4.788788c2.3708954 -2.3944092 4.957321 -4.788788 7.7592773 -7.183197c2.8019714 -2.3944092 5.6039276 -4.589264 8.405899 -6.5845947c2.8019562 -1.9953308 4.8495483 -3.1925354 6.142761 -3.5916138c0.43107605 -1.1971741 1.5087585 -2.793457 3.2330322 -4.788788c1.724289 -1.9953308 3.771881 -4.0904236 6.1427765 -6.2852783c2.3708801 -2.1948547 4.7417755 -4.1901855 7.112671 -5.9859924c2.3708954 -1.7958069 4.202942 -3.0927734 5.496155 -3.8908997l4.5262604 -5.9859924c4.3107147 -2.3943787 7.9748077 -5.38739 10.99231 -8.978973c3.0175018 -3.5916138 6.8971405 -6.385071 11.638931 -8.380402c0.8621521 -1.9953308 2.2631226 -3.4918213 4.202942 -4.489502c1.9398193 -0.99765015 3.3407898 -2.2946167 4.202942 -3.8908997c3.448578 -2.793457 6.7893677 -5.686676 10.0224 -8.6796875c3.2330627 -2.992981 6.5738525 -6.0857544 10.02243 -9.27829c2.5864258 -3.5915833 5.388397 -6.8838806 8.405884 -9.876862c3.0174866 -2.9930115 6.68161 -5.4871826 10.99231 -7.4825134c6.0350037 -6.7841187 12.608856 -13.069397 19.721527 -18.855865c7.112671 -5.7864685 14.764191 -12.670349 22.954529 -20.651672c0.8621521 -1.1972046 1.6165466 -2.3944092 2.263153 -3.5915833c0.64660645 -1.1972046 2.6941833 -2.793457 6.142761 -4.7888184c0.8621216 -3.192505 2.6941833 -5.686676 5.496155 -7.482483c2.8019714 -1.7957764 4.8495483 -4.2899475 6.142761 -7.482483c5.1728516 -3.1925354 8.836975 -7.1831665 10.99231 -11.971954c0 -2.793457 -1.2932129 -5.7864685 -3.8796387 -8.978973c1.7243042 -1.5962524 2.5864258 -3.4918213 2.5864258 -5.686676c0 -2.1948547 0.8621521 -5.0880737 2.5864258 -8.6796875c-0.4310608 -1.5962524 -1.7242737 -3.2922668 -3.8796387 -5.088043c-2.1553345 -1.7958069 -4.526245 -3.5915833 -7.112671 -5.3873596c-2.5864258 -1.7958069 -5.1728516 -3.4918213 -7.7592773 -5.0880737c-2.5864258 -1.5962524 -4.526245 -2.793457 -5.819458 -3.5915833c-1.2932129 -2.3943787 -6.2505493 -5.7864227 -14.871979 -10.176117c-1.7242737 -1.9953156 -3.5563354 -3.591568 -5.496155 -4.7887573c-1.9398193 -1.1971893 -3.5563354 -2.793457 -4.8495483 -4.7887726c-3.448578 -1.9953156 -6.897156 -4.0904083 -10.345703 -6.285248c-3.448578 -2.1948547 -7.112671 -4.2899323 -10.99234 -6.285248c-4.7417603 -3.1925201 -10.130157 -5.3873596 -16.165161 -6.5845337c-6.0350037 -1.1971893 -10.99231 -3.990631 -14.871948 -8.380341c-4.31073 -1.5962372 -8.405914 -3.69133 -12.285553 -6.2852325c-3.8796387 -2.5939178 -7.7592773 -4.8885345 -11.638916 -6.88385c-3.879654 -2.3943787 -7.974823 -4.5892334 -12.285538 -6.584549c-4.3107147 -1.9953156 -8.621429 -3.990631 -12.932144 -5.9859314c-4.3107147 -1.9953156 -10.0224 -4.7887573 -17.135086 -8.380325c-7.112671 -3.591568 -12.824371 -5.7864227 -17.135086 -6.5845337c-1.7242737 -1.5962677 -3.2330322 -2.793457 -4.526245 -3.5915833c-1.2932129 -0.7981262 -2.3708954 -1.9953156 -3.2330322 -3.591568c-2.155365 -0.3990631 -4.0951843 -1.0974274 -5.819458 -2.0950775c-1.724289 -0.9976654 -3.6641083 -1.8955536 -5.8194733 -2.6936798c-0.4310608 -2.793457 -2.8019562 -4.7887726 -7.112671 -5.985962c-1.2932129 0.39907837 -2.4786682 0.9976654 -3.5563354 1.7958069c-1.0776825 0.7981262 -2.2631226 1.5962677 -3.5563507 2.394394c-1.2932129 -0.7981262 -2.2631226 -1.7957916 -2.909729 -2.992981c-0.64660645 -1.1971893 -1.6165161 -1.9953156 -2.909729 -2.3943787c-1.724289 0 -3.2330322 0.39907837 -4.526245 1.1972046c-1.2932129 0.7981262 -2.8019714 1.3967285 -4.526245 1.7958069c-2.586441 -2.394394 -5.8194733 -3.591568 -9.699112 -3.591568c-2.5864258 1.5258789E-5 -5.2806244 0.2993164 -8.082588 0.8979187c-2.8019638 0.5986023 -5.711693 1.0974426 -8.729195 1.496521c-2.5864258 -2.793457 -6.250534 -4.1901703 -10.992317 -4.190155z" fill-rule="evenodd"/><path fill="#f1c40f" d="m427.55188 124.34348c-2.8697205 -0.18156433 -5.5885315 1.0459595 -8.156372 3.6825638c-2.5678406 2.636612 -5.041321 5.679077 -7.42041 9.127365c-2.3791199 3.448288 -4.3995056 6.919281 -6.061157 10.412964c-1.6616821 3.4936829 -2.7946472 6.2210846 -3.3989563 8.18219c-2.8954468 7.8141785 -6.791443 14.365448 -11.687988 19.653809c-4.8965454 5.2883606 -10.89444 10.906891 -17.993683 16.855621c-2.517456 1.8400726 -4.4433594 3.8175201 -5.7776794 5.9323883c-1.3343201 2.114853 -2.8070984 4.5208435 -4.4183655 7.217987c-2.593048 3.0348816 -5.0602417 5.977768 -7.4015503 8.828644c-2.341278 2.8508759 -4.8084717 5.793762 -7.40152 8.828659c-7.8043213 9.50293 -15.369537 19.020996 -22.695587 28.5542c-7.32605 9.533203 -13.959869 19.51007 -19.901459 29.930603c-1.006958 0.73602295 -2.5678406 2.6365967 -4.6825867 5.7017517c-0.20159912 3.1861877 -1.7750854 5.285919 -4.720398 6.299164c-2.945343 1.0132751 -4.5062256 2.9138489 -4.682617 5.701782c-0.07559204 1.1947937 -0.03793335 2.4967651 0.11300659 3.9058533c0.15093994 1.4090881 -0.5288086 2.6656494 -2.0392761 3.7696838c2.265442 2.1427002 5.0595703 3.5190735 8.382385 4.129181c3.3228455 0.6101074 6.116974 1.9865112 8.382416 4.129181c2.3158264 1.3461304 3.6436157 3.1295776 3.9832764 5.3503723c0.33969116 2.2207642 1.1765747 4.1730957 2.5106506 5.856964c0.8557739 1.6536255 2.2150269 2.9392395 4.0777893 3.8568115c1.8627625 0.91760254 3.2220154 2.2032166 4.0777893 3.856842c1.7871704 2.1124268 3.083435 4.3937073 3.888794 6.843872c0.8053894 2.4501648 2.1268616 4.333191 3.9644165 5.649048c9.615662 7.4061584 18.52649 14.56781 26.732483 21.484894c12.736877 11.202454 24.88852 22.167938 36.454865 32.896484c11.566376 10.728516 23.98233 21.310883 37.247925 31.74704c3.6499023 3.0300293 5.298462 7.332947 4.945648 12.908783c-0.1763916 2.7879333 -1.3534851 6.212311 -3.53125 10.273132c-2.1777344 4.060852 -4.613556 8.405243 -7.3074036 13.033234c-2.6938477 4.6279907 -5.6142273 9.041718 -8.761169 13.24115c-3.1469421 4.199463 -5.5260315 7.6477356 -7.1372986 10.344879c-2.1147766 3.065155 -4.336487 5.923584 -6.6651917 8.575348c-2.3287048 2.6517334 -4.31131 5.525299 -5.947754 8.620728c-5.8659973 9.2256775 -11.964813 18.3367 -18.296509 27.333038c-6.331665 8.996277 -11.499115 18.566101 -15.50235 28.709412c1.8627625 0.91760254 3.2094116 2.4023438 4.0400085 4.4542236c0.8305664 2.05188 4.039978 4.4542236 9.628265 7.2070312c2.3158264 1.3461304 3.6687927 2.7313232 4.058899 4.1555176c0.39007568 1.4241943 2.2591248 2.2422485 5.607147 2.4541016c1.4348755 0.09075928 2.8823547 -0.017578125 4.342407 -0.32507324c1.460083 -0.30749512 2.9201355 -0.61499023 4.3802185 -0.92248535c1.8627319 0.91760254 3.3415833 2.2107544 4.436493 3.8795166c1.0949402 1.6687622 2.8381042 2.5787964 5.229553 2.7301025c0.9565735 0.060546875 2.2844849 -0.055419922 3.9837036 -0.34777832c0.84957886 -0.1461792 1.6032104 -0.1984253 2.2608643 -0.15686035c0.6576538 0.041625977 1.2193298 0.17712402 1.6849976 0.40655518c1.8627625 0.91760254 3.2346191 2.0040283 4.1156006 3.2593994c0.88098145 1.2553711 2.03891 1.9284058 3.4737854 2.019165c3.826294 0.24212646 9.075012 -1.1252441 15.746124 -4.102051c6.6710815 -2.9768066 12.196747 -4.9263916 16.576935 -5.848877c2.8450623 -7.017639 6.5145264 -13.783203 11.008362 -20.29663c4.493866 -6.5134277 8.16333 -13.278992 11.008392 -20.29657c3.901886 -0.9527588 6.299774 -2.800415 7.1936035 -5.5429077c0.89382935 -2.7425537 1.8820496 -5.0792236 2.9646301 -7.010071c1.6364746 -3.095398 3.6316528 -6.168152 5.985565 -9.21814c2.3538818 -3.0500488 4.34906 -6.1227417 5.9855347 -9.21814c2.1147766 -3.065155 3.8897095 -6.451721 5.324829 -10.159668c1.4351196 -3.7079468 3.1974792 -6.895355 5.287018 -9.562225c1.0574036 -1.5325928 2.4482727 -2.6441956 4.172699 -3.3348083c1.7243958 -0.6906433 3.1026917 -1.6031189 4.134857 -2.7374268c2.5930786 -3.0348816 4.3743286 -6.520996 5.34375 -10.4583435c0.9694214 -3.9373474 2.775879 -7.821747 5.4193115 -11.653168c2.6686401 -4.2297363 5.173645 -7.7700195 7.5149536 -10.620911c2.3413086 -2.8508606 3.713562 -7.462494 4.1167603 -13.8349c-0.8557739 -1.6536255 -1.6046143 -3.100525 -2.246399 -4.3407593c-0.6418457 -1.2402039 -1.4032593 -2.487976 -2.2842407 -3.7433472c1.3849487 -6.7101135 1.1211548 -13.924469 -0.7915039 -21.642975c-1.9125977 -7.7185364 -6.871399 -12.830688 -14.876343 -15.336517c-8.029572 -9.705017 -17.330475 -18.290863 -27.90274 -25.757538c-10.572235 -7.466675 -20.640991 -15.301392 -30.206238 -23.50409c-4.9839783 -4.7138977 -9.873596 -9.021942 -14.668823 -12.924164c-4.795227 -3.9022217 -9.710022 -7.811981 -14.744415 -11.72934c-2.265442 -2.1426697 -4.411316 -4.2778015 -6.437622 -6.4053345c-2.0262756 -2.1275635 -4.1721497 -4.262665 -6.4375916 -6.405365c-1.3592834 -1.2855835 -4.2351685 -3.2669678 -8.627716 -5.944092c-4.3925476 -2.677124 -6.5384216 -4.812256 -6.437622 -6.4053345c0.10079956 -1.5931091 2.253357 -5.2556763 6.457672 -10.987701c4.204315 -5.732025 9.025391 -11.724915 14.463226 -17.978699c5.4378357 -6.253784 10.737213 -12.216415 15.898102 -17.887924c5.1608887 -5.6714935 8.52179 -9.457535 10.082642 -11.358124c2.5678406 -2.636612 4.651123 -5.2039185 6.2497864 -7.7019196c1.5986633 -2.498001 3.2036438 -5.095566 4.814911 -7.7927094c4.1286926 -4.537201 8.383301 -9.166397 12.763733 -13.887604c4.3804626 -4.7212067 8.975006 -10.928375 13.7836 -18.621506c6.44458 -3.1910706 11.315918 -8.0811615 14.614044 -14.670258c3.2981567 -6.589096 5.1362305 -12.870697 5.514221 -18.844803c0.42840576 -6.7706757 -0.8675842 -12.850708 -3.888031 -18.240097c-3.8010864 -0.6403656 -7.3441772 -1.5643158 -10.629181 -2.7718353c-3.2850342 -1.2075043 -6.8406982 -1.932312 -10.666992 -2.174408c-2.391449 -0.15130615 -4.5752563 0.21035767 -6.551422 1.0850067c-1.9761353 0.8746338 -3.920807 1.2514343 -5.833954 1.1303864c-2.869751 -0.18157959 -5.840149 -0.66941833 -8.911224 -1.4635315c-3.0710754 -0.7940979 -6.0162964 -1.6802216 -8.835632 -2.6583405c-3.2976074 -1.0083771 -7.167877 -2.4528656 -11.61084 -4.3334427c-4.442932 -1.8805771 -7.860138 -2.8965225 -10.251587 -3.0478363z" fill-rule="evenodd"/></g></svg>