<svg version="1.1" viewBox="0.0 0.0 628.5459317585302 717.4435695538058" fill="none" stroke="none" stroke-linecap="square" stroke-miterlimit="10" xmlns:xlink="http://www.w3.org/1999/xlink" xmlns="http://www.w3.org/2000/svg"><clipPath id="p.0"><path d="m0 0l628.54596 0l0 717.44354l-628.54596 0l0 -717.44354z" clip-rule="nonzero"/></clipPath><g clip-path="url(#p.0)"><path fill="#000000" fill-opacity="0.0" d="m0 0l628.54596 0l0 717.44354l-628.54596 0z" fill-rule="evenodd"/><path fill="#ffffff" d="m3.9908137 4.9265094l620.15753 0l0 707.5906l-620.15753 0z" fill-rule="evenodd"/><path stroke="#ffffff" stroke-width="8.0" stroke-linejoin="round" stroke-linecap="butt" d="m3.9908137 4.9265094l620.15753 0l0 707.5906l-620.15753 0z" fill-rule="evenodd"/><path fill="#000000" d="m185.74542 251.08698c0.8542328 0.790802 2.349121 1.6804504 4.4846954 2.6689453c2.135559 0.9884949 4.698242 1.4827423 7.688034 1.482727c4.2711334 0.790802 8.328705 2.7677917 12.1727295 5.9309998c0.8542328 0 2.349121 0.39538574 4.4846954 1.1861877c2.135559 0.790802 4.2711334 1.6804504 6.4066925 2.6689453c2.1355743 0.9884949 4.1643677 2.0758362 6.0863647 3.262024c1.9220123 1.1862183 3.0965729 2.1747131 3.523697 2.9655151c8.542267 3.1631775 16.65741 7.0183105 24.345459 11.565399c7.688034 4.547119 15.162521 8.995361 22.423447 13.344727c-2.9898071 6.7218323 -7.2609253 12.45517 -12.813385 17.199982c-5.55249 4.7448425 -12.172745 10.873566 -19.860779 18.3862c-8.969391 9.094238 -17.725204 18.188477 -26.267471 27.282715c-8.542267 9.094269 -17.725204 17.79309 -27.548813 26.096558c-1.2813416 1.1861877 -2.3491364 2.6689453 -3.203354 4.448242c-0.8542328 1.7793274 -2.349121 3.064392 -4.4846954 3.855194c-1.2813416 -5.1402283 -1.9220123 -10.280426 -1.9220123 -15.420654c0 -1.9769897 0.21356201 -3.95401 0.6406708 -5.9309998c0.42712402 -1.9770203 0.6406708 -3.95401 0.6406708 -5.9310303c0 -1.9769897 -0.21354675 -4.151703 -0.6406708 -6.524109c-0.42710876 -2.372406 -0.6406708 -4.547119 -0.6406708 -6.524109l1.2813416 -31.434387c0 -8.698822 0.106781006 -17.49649 0.32034302 -26.393005c0.21354675 -8.896515 0.32032776 -17.891907 0.32032776 -26.986115c0 -1.581604 -0.106781006 -3.0643616 -0.32032776 -4.4482727c-0.21356201 -1.3838806 -0.32034302 -2.6689453 -0.32034302 -3.8551636c0.42712402 -0.790802 0.8542328 -1.6804504 1.2813416 -2.6689453c0.42710876 -0.9884949 0.6406708 -2.4712524 0.6406708 -4.4482574l1.2813416 -1.7793121zm-76.23973 -97.86156c-3.4169083 1.5258789E-5 -5.9795914 1.1862183 -7.6880417 3.5586243l0.6406708 9.489624c0 12.257431 -0.6406708 24.514862 -1.9220123 36.772293c0 2.767807 -0.21355438 5.535614 -0.6406708 8.303421c-0.42710876 2.767807 -0.6406708 5.535614 -0.6406708 8.303421c0 5.535614 0.106781006 10.774689 0.3203354 15.717194c0.21355438 4.942505 0.3203354 10.18158 0.3203354 15.717194c0 16.606842 -0.3203354 33.31253 -0.96100616 50.117065c-0.6406708 16.804535 -0.96100616 34.301025 -0.96100616 52.48947c-0.42710876 3.5586243 -0.85422516 7.216095 -1.2813339 10.972382c-0.4271164 3.7563171 -0.6406708 7.8091736 -0.6406708 12.1586c0 6.7218018 0.3203354 13.641327 0.96100616 20.758545c0.64066315 7.117218 0.96099854 14.036713 0.96099854 20.758545c0 11.86203 -0.42710876 23.822906 -1.2813339 35.88263c-0.8542328 12.059753 -1.2813416 24.02063 -1.2813416 35.88266c0 5.1401978 0.42710876 10.18158 1.2813416 15.124084c0.85422516 4.942505 1.2813339 9.786163 1.2813339 14.530975c0 2.3723755 -0.10677338 4.843689 -0.3203354 7.4137573c-0.21355438 2.5701294 -0.32032776 5.2390747 -0.32032776 8.006897c0 4.744812 0.21355438 9.88501 0.64066315 15.420593c0.4271164 5.5356445 -0.64066315 10.478149 -3.2033463 14.827576c1.7084503 1.581604 1.9220123 4.3494263 0.6406708 8.303406c2.9897919 3.163208 5.0185776 6.425232 6.0863647 9.786194c1.0677795 3.3609009 2.455902 6.622925 4.1643524 9.786133c1.708458 0 3.3101273 -0.19769287 4.805031 -0.59313965c1.4948959 -0.39538574 3.0965652 -0.5930786 4.805023 -0.5930786c0.85422516 0 2.9897919 -1.581604 6.4067 -4.744812c2.1355667 0 3.0965729 0.39538574 2.8830109 1.1861572c-0.0854187 0.31628418 0.29044342 0.4744873 1.1275787 0.4744873c1.2557144 0 3.5493164 -0.355896 6.8807983 -1.0675659c2.562683 -6.1035156E-5 5.125366 0.5930786 7.688034 1.7792358c2.1355743 -0.7907715 4.1643677 -1.6804199 6.08638 -2.6689453c1.9219971 -0.9885254 4.377899 -1.680481 7.367691 -2.0758667c1.2813416 -0.7908325 2.669464 -1.9769897 4.1643677 -3.5586548c1.4948883 -1.581604 3.0965729 -2.3723755 4.805023 -2.3723755c1.7084503 0 3.203354 0.39538574 4.48468 1.1861572c1.2813416 0.7908325 2.9898071 1.1862183 5.125366 1.1862183l4.4846954 -5.3379517l0 -20.165405c0 -10.675842 -0.106781006 -21.4505 -0.32034302 -32.324036c-0.21354675 -10.873535 -0.5338898 -21.648224 -0.96099854 -32.324036l6.4066925 -4.1517334c0.42712402 -0.790802 1.8152313 -2.372406 4.1643524 -4.744812c2.3491364 -2.3724365 4.911804 -4.7448425 7.6880493 -7.1172485c2.7762299 -2.372406 5.552475 -4.547119 8.328705 -6.5241394c2.776245 -1.9770203 4.805023 -3.163208 6.0863647 -3.5586243c0.42712402 -1.1861877 1.4949036 -2.7677917 3.203354 -4.744812c1.7084503 -1.9770203 3.7372437 -4.0528564 6.0863647 -6.2275696c2.349121 -2.1747131 4.698242 -4.1517334 7.0473785 -5.9310303c2.349121 -1.7793274 4.1643524 -3.064392 5.445694 -3.855194l4.48468 -5.9310303c4.2711334 -2.372406 7.901596 -5.337921 10.891388 -8.896545c2.9898071 -3.5585938 6.8338165 -6.326416 11.532074 -8.303436c0.8542175 -1.9770203 2.24234 -3.4597778 4.164337 -4.4482727c1.9220276 -0.9884949 3.3101501 -2.2735596 4.1643677 -3.8551636c3.4169006 -2.7678223 6.7270203 -5.634491 9.930389 -8.600006c3.2033386 -2.9655151 6.513489 -6.0298767 9.930389 -9.193085c2.562683 -3.5586243 5.3388977 -6.8206787 8.328705 -9.786194c2.9897766 -2.9655151 6.6202393 -5.436798 10.891388 -7.413788c5.9795837 -6.7218323 12.4930725 -12.949432 19.540436 -18.68277c7.0473633 -5.733307 14.628632 -12.554016 22.743774 -20.462036c0.85424805 -1.1862183 1.6016846 -2.372406 2.2423706 -3.5586243c0.6406555 -1.1861877 2.6694336 -2.7678223 6.0863647 -4.744812c0.8542175 -3.163208 2.6694336 -5.634491 5.4456787 -7.413788c2.776245 -1.7793274 4.805023 -4.25058 6.0863647 -7.413788c5.125366 -3.163208 8.755829 -7.1172485 10.891388 -11.862061c0 -2.7677917 -1.2813416 -5.733307 -3.8440247 -8.896515c1.7084656 -1.581604 2.562683 -3.4597473 2.562683 -5.6344604c0 -2.1747131 0.85424805 -5.041382 2.562683 -8.599976c-0.4270935 -1.581604 -1.708435 -3.2620544 -3.8440247 -5.0413513c-2.135559 -1.7792969 -4.48468 -3.5585938 -7.0473633 -5.3378906c-2.562683 -1.7792969 -5.125366 -3.4597473 -7.6880493 -5.0413513c-2.562683 -1.581604 -4.48468 -2.7677917 -5.7660217 -3.5585938c-1.2813416 -2.372406 -6.1931458 -5.733307 -14.735413 -10.082687c-1.708435 -1.977005 -3.5236816 -3.558609 -5.4456787 -4.7447968c-1.9220276 -1.186203 -3.5237122 -2.767807 -4.805023 -4.744812c-3.4169312 -1.9769897 -6.833832 -4.052841 -10.250732 -6.227539c-3.4169006 -2.1746979 -7.0473633 -4.250534 -10.891388 -6.227539c-4.698242 -3.1631927 -10.03717 -5.3378906 -16.016754 -6.5240784c-5.9795837 -1.1861877 -10.891388 -3.9539795 -14.735413 -8.303375c-4.271118 -1.5815887 -8.328705 -3.6574402 -12.1727295 -6.227539c-3.8440247 -2.5700989 -7.6880493 -4.843643 -11.532059 -6.820633c-3.8440247 -2.372406 -7.901596 -4.5470886 -12.1727295 -6.5240936c-4.2711334 -1.9769897 -8.542267 -3.9539795 -12.8134 -5.9309845c-4.2711334 -1.9769897 -9.930389 -4.7447815 -16.977753 -8.303375c-7.0473785 -3.5585938 -12.7066345 -5.7332764 -16.977768 -6.5240784c-1.7084503 -1.5815887 -3.2033386 -2.7677917 -4.48468 -3.5585938c-1.2813416 -0.790802 -2.349121 -1.977005 -3.203354 -3.5585938c-2.1355743 -0.395401 -4.0575714 -1.0873413 -5.766037 -2.0758514c-1.7084503 -0.9884949 -3.6304626 -1.8781433 -5.7660217 -2.66893c-0.42712402 -2.767807 -2.776245 -4.744812 -7.0473785 -5.9309998c-1.2813416 0.395401 -2.455902 0.98851013 -3.5236816 1.7793121c-1.0677795 0.790802 -2.24234 1.581604 -3.5236816 2.372406c-1.2813416 -0.79078674 -2.24234 -1.7792969 -2.8830109 -2.9654999c-0.6406708 -1.186203 -1.6016846 -1.9769897 -2.8830261 -2.3723907c-1.7084503 0 -3.2033386 0.395401 -4.48468 1.186203c-1.2813416 0.79081726 -2.776245 1.3839111 -4.4846954 1.7793274c-2.562683 -2.372406 -5.766037 -3.5585938 -9.610046 -3.5585938c-2.562683 1.5258789E-5 -5.232147 0.29656982 -8.008377 0.88967896c-2.7762375 0.59310913 -5.659256 1.0873566 -8.649048 1.4827728c-2.562683 -2.767807 -6.1931458 -4.151703 -10.891388 -4.1516876z" fill-rule="evenodd"/><path fill="#000000" d="m427.60248 128.12308c-2.8433838 -0.17990112 -5.537201 1.0363464 -8.081482 3.648758c-2.5442505 2.6123962 -4.9950256 5.6269226 -7.352295 9.043549c-2.3572388 3.4166412 -4.35907 6.8557587 -6.005493 10.317352c-1.6464233 3.461609 -2.768982 6.163971 -3.3677368 8.107071c-2.868866 7.7424316 -6.7290955 14.233551 -11.580688 19.473343c-4.851593 5.239807 -10.794403 10.806763 -17.82846 16.700867c-2.4943542 1.8231659 -4.4025574 3.7824707 -5.7246094 5.8779144c-1.3220825 2.0954437 -2.7813416 4.4793396 -4.377838 7.151718c-2.5692444 3.007019 -5.0137634 5.922882 -7.333557 8.747589c-2.3197937 2.824707 -4.7643127 5.74057 -7.333557 8.747589c-7.7326965 9.41568 -15.228424 18.84636 -22.487213 28.292023c-7.258789 9.445663 -13.831696 19.330917 -19.71872 29.655777c-0.9977417 0.72927856 -2.544281 2.6123962 -4.639618 5.649414c-0.19973755 3.1569214 -1.7587585 5.2373657 -4.677063 6.241333c-2.9183044 1.0039368 -4.464813 2.887085 -4.639618 5.649414c-0.07489014 1.1838379 -0.03756714 2.4738464 0.11199951 3.869995c0.14953613 1.3961487 -0.5239868 2.6411743 -2.0205688 3.735077c2.244629 2.1230164 5.0131226 3.486786 8.30542 4.091278c3.292328 0.6044922 6.060791 1.9682617 8.30545 4.0912476c2.2945557 1.3337708 3.610138 3.1008606 3.9467163 5.301239c0.33657837 2.2003784 1.1657715 4.134796 2.4875793 5.803192c0.8479309 1.6384583 2.1947021 2.912262 4.040344 3.8214111c1.8456726 0.9091797 3.1924438 2.1829834 4.0403748 3.8214111c1.770752 2.093048 3.0551147 4.3533936 3.8530884 6.781067c0.79797363 2.4276733 2.1072998 4.293396 3.9279785 5.597168c9.527374 7.3381653 18.356415 14.434021 26.48706 21.287628c12.619934 11.099609 24.659973 21.964417 36.120148 32.59442c11.460175 10.630035 23.762146 21.115204 36.905914 31.455566c3.616394 3.0021973 5.249817 7.2655945 4.900238 12.790253c-0.17477417 2.762329 -1.3410645 6.155243 -3.4988098 10.1788025c-2.1577759 4.0235596 -4.5711975 8.328064 -7.240326 12.913574c-2.669098 4.5854797 -5.562683 8.958679 -8.680725 13.119568c-3.118042 4.1608887 -5.4753113 7.5775146 -7.0717773 10.249878c-2.095337 3.0370178 -4.2966614 5.869232 -6.604004 8.496613c-2.307312 2.627411 -4.271698 5.474579 -5.8931274 8.541595c-5.812134 9.140991 -11.85498 18.168335 -18.12851 27.082031c-6.273529 8.913696 -11.393524 18.39569 -15.360016 28.445862c1.8456726 0.90911865 3.1799622 2.380249 4.002899 4.41333c0.8229675 2.03302 4.0029297 4.41333 9.539856 7.140808c2.2945862 1.3338013 3.6351318 2.7062378 4.021637 4.1173706c0.38650513 1.4111938 2.2384033 2.2216797 5.5556946 2.4315796c1.4216919 0.08996582 2.8558655 -0.01739502 4.3025208 -0.32208252c1.4466553 -0.3046875 2.893341 -0.60931396 4.3399963 -0.91400146c1.8456421 0.9091797 3.310913 2.1904907 4.3957825 3.843872c1.0848694 1.6534424 2.8120422 2.5551147 5.1815186 2.705017c0.94781494 0.05999756 2.2634888 -0.054870605 3.947113 -0.34454346c0.8417969 -0.14483643 1.588501 -0.19665527 2.2401123 -0.15539551c0.6516113 0.04119873 1.2081299 0.17547607 1.6695557 0.402771c1.8456421 0.9091797 3.204895 1.9856567 4.0777893 3.2294922c0.8728943 1.2438354 2.020172 1.9107056 3.441864 2.0006714c3.7911987 0.23986816 8.991699 -1.1149292 15.6015625 -4.064392c6.6098633 -2.949524 12.084778 -4.8812256 16.424744 -5.795227c2.8189392 -6.953186 6.454712 -13.656616 10.907288 -20.11023c4.452606 -6.4536743 8.088379 -13.1571045 10.907288 -20.11029c3.8660889 -0.9439697 6.2419434 -2.7746582 7.127594 -5.4920044c0.8856201 -2.7173462 1.8647461 -5.0325317 2.937378 -6.9456787c1.62146 -3.0669556 3.5983276 -6.111511 5.930603 -9.133484c2.332306 -3.0220337 4.3091736 -6.0665283 5.930603 -9.133545c2.095337 -3.0369873 3.854004 -6.3924255 5.27594 -10.066345c1.421936 -3.6739197 3.1680908 -6.832062 5.2384644 -9.474457c1.0476685 -1.5184937 2.4258118 -2.619873 4.1343994 -3.3041687c1.7085571 -0.68429565 3.0742188 -1.5883789 4.096924 -2.7122803c2.5692139 -3.007019 4.3341064 -6.4611206 5.2946167 -10.362335c0.9605713 -3.901184 2.7504272 -7.7499084 5.369568 -11.546173c2.644165 -4.1908875 5.1261597 -7.6986694 7.445923 -10.523376c2.3198242 -2.824707 3.6795044 -7.393982 4.0789795 -13.707886c-0.8479004 -1.6384277 -1.5898438 -3.072052 -2.225769 -4.300873c-0.6359253 -1.2288513 -1.3903809 -2.4651794 -2.2632446 -3.7089844c1.3722534 -6.648529 1.1108398 -13.796631 -0.7842407 -21.444275c-1.8950806 -7.647644 -6.8082886 -12.712891 -14.739746 -15.195679c-7.955841 -9.615936 -17.171356 -18.122955 -27.646545 -25.521057c-10.475159 -7.3981323 -20.451477 -15.160889 -29.928894 -23.288269c-4.9382324 -4.670624 -9.782928 -8.939117 -14.534149 -12.805511c-4.75119 -3.866394 -9.62088 -7.740265 -14.609009 -11.621643c-2.2446594 -2.1230164 -4.370819 -4.2385254 -6.3785095 -6.346527c-2.0076904 -2.1080322 -4.1338806 -4.2235413 -6.3785095 -6.346527c-1.3468018 -1.2738037 -4.196289 -3.2369995 -8.548492 -5.8895264c-4.352234 -2.6525574 -6.4783936 -4.7680664 -6.3785095 -6.3465576c0.099853516 -1.5784607 2.232666 -5.2073975 6.3983765 -10.88678c4.1657104 -5.6793823 8.942535 -11.617279 14.330444 -17.81363c5.387909 -6.19635 10.638611 -12.104248 15.752106 -17.723679c5.1135254 -5.6194305 8.4435425 -9.370712 9.990082 -11.253845c2.5442505 -2.6124115 4.6083984 -5.156143 6.192383 -7.631195c1.5839844 -2.4750671 3.1742249 -5.0487823 4.770691 -7.721161c4.0908203 -4.4955444 8.306335 -9.082245 12.646576 -13.760101c4.3402405 -4.6778564 8.892578 -10.828033 13.657043 -18.450531c6.385376 -3.1617584 11.212006 -8.006943 14.479858 -14.535538c3.2678528 -6.528595 5.0890503 -12.752533 5.4635925 -18.671799c0.424469 -6.708496 -0.85964966 -12.732697 -3.8523254 -18.072617c-3.7662048 -0.63449097 -7.276764 -1.549942 -10.531616 -2.7463684c-3.2548523 -1.1964264 -6.777893 -1.9145813 -10.569061 -2.1544495c-2.3694763 -0.1499176 -4.5332336 0.2084198 -6.4912415 1.0750275c-1.9580078 0.86660767 -3.8848267 1.2399445 -5.7803955 1.1200104c-2.8433838 -0.17990112 -5.7865295 -0.6632538 -8.829407 -1.4500732c-3.0428772 -0.78681946 -5.9610596 -1.6648102 -8.754486 -2.6339417c-3.2673645 -0.999115 -7.102112 -2.4303436 -11.504242 -4.2936554c-4.4021606 -1.8633118 -7.787964 -2.869934 -10.157471 -3.0198517z" fill-rule="evenodd"/></g></svg>