<svg version="1.1" viewBox="0.0 0.0 692.496062992126 713.7821522309712" fill="none" stroke="none" stroke-linecap="square" stroke-miterlimit="10" xmlns:xlink="http://www.w3.org/1999/xlink" xmlns="http://www.w3.org/2000/svg"><clipPath id="p.0"><path d="m0 0l692.49603 0l0 713.78217l-692.49603 0l0 -713.78217z" clip-rule="nonzero"/></clipPath><g clip-path="url(#p.0)"><path fill="#000000" fill-opacity="0.0" d="m0 0l692.49603 0l0 713.78217l-692.49603 0z" fill-rule="evenodd"/><defs><linearGradient id="p.1" gradientUnits="userSpaceOnUse" gradientTransform="matrix(25.529569518222985 -6.260400651793154E-5 6.260400651793154E-5 25.529569518222985 0.0 0.0)" spreadMethod="pad" x1="0.8589948806335331" y1="1.9806533424669492" x2="0.858902412688509" y2="27.51022286052247"><stop offset="0.0" stop-color="#ed213a"/><stop offset="1.0" stop-color="#93291e"/></linearGradient></defs><path fill="url(#p.1)" d="m156.66496 195.49895c1.2651062 1.1711578 3.4790344 2.4887238 6.6418 3.9526825c3.1627502 1.4639587 6.958069 2.195938 11.385941 2.1959229c6.3255157 1.1711578 12.334763 4.0990753 18.027725 8.783752c1.2651062 -1.5258789E-5 3.4790344 0.5855713 6.6418 1.7567291c3.1627502 1.1711731 6.3255157 2.488739 9.488281 3.9526825c3.1627502 1.4639587 6.1673737 3.0743256 9.013855 4.83107c2.8464966 1.7567596 4.586014 3.2207184 5.2185516 4.3918915c12.651047 4.6846466 24.66954 10.394089 36.05548 17.128296c11.385925 6.7342224 22.455597 13.322037 33.208984 19.763458c-4.427887 9.954987 -10.753387 18.445984 -18.976562 25.473053c-8.223175 7.0270386 -18.02774 16.103638 -29.413681 27.229828c-13.283585 13.468506 -26.2509 26.937012 -38.901947 40.405518c-12.6510315 13.468536 -26.2509 26.35144 -40.799606 38.648804c-1.8976593 1.7567444 -3.4790344 3.9526978 -4.7441406 6.58786c-1.2651062 2.6351318 -3.4790344 4.5382996 -6.6417847 5.7094727c-1.8976593 -7.61261 -2.8464966 -15.22522 -2.8464966 -22.83786c0 -2.9279175 0.31628418 -5.8558655 0.9488373 -8.783783c0.6325531 -2.927948 0.948822 -5.8558655 0.948822 -8.783813c0 -2.9279175 -0.31626892 -6.148651 -0.948822 -9.66217c-0.6325531 -3.5134888 -0.9488373 -6.7342224 -0.9488373 -9.66217l1.8976593 -46.554077c0 -12.882904 0.15814209 -25.9122 0.474411 -39.08789c0.31628418 -13.17569 0.47442627 -26.497772 0.47442627 -39.966248c0 -2.3423462 -0.15814209 -4.5382996 -0.47442627 -6.587845c-0.31626892 -2.0495605 -0.474411 -3.952713 -0.474411 -5.7094727c0.6325531 -1.1711731 1.2651062 -2.488739 1.8976593 -3.952713c0.6325531 -1.4639587 0.948822 -3.659912 0.948822 -6.587845l1.8976593 -2.6351318zm-112.91053 -144.93231c-5.0604134 1.1444092E-5 -8.855728 1.7567787 -11.385933 5.270302l0.94882584 14.0540695c0 18.153168 -0.94882584 36.306343 -2.8464832 54.45952c0 4.099098 -0.31627655 8.198204 -0.94882774 12.29731c-0.6325531 4.099106 -0.94882774 8.198212 -0.94882774 12.2973175c0 8.198196 0.15813637 15.957214 0.47441292 23.277039c0.31627655 7.319824 0.47441483 15.078842 0.47441483 23.277054c0 24.59462 -0.47441483 49.335632 -1.4232426 74.22304c-0.94882774 24.88742 -1.4232426 50.79962 -1.4232426 77.73657c-0.6325512 5.270294 -1.2651024 10.686951 -1.8976555 16.25003c-0.6325512 5.5630493 -0.94882774 11.565338 -0.94882774 18.006775c0 9.954956 0.47441483 20.202728 1.4232426 30.743256c0.94882774 10.540558 1.4232407 20.78833 1.4232407 30.743286c0 17.567566 -0.6325512 35.281555 -1.8976555 53.141937c-1.2651043 17.860382 -1.8976555 35.57437 -1.8976555 53.141937c0 7.61261 0.6325512 15.078857 1.8976555 22.398682c1.2651043 7.319824 1.8976555 14.493225 1.8976555 21.520264c0 3.5135498 -0.15813828 7.173462 -0.47441292 10.979736c-0.31627655 3.8063354 -0.47441483 7.759033 -0.47441483 11.858154c0 7.0270386 0.31627655 14.639648 0.94882774 22.83783c0.6325531 8.198242 -0.94882774 15.518066 -4.7441387 21.959534c2.5302067 2.3423462 2.8464832 6.4414062 0.94882774 12.297302c4.427864 4.6846924 7.4324856 9.515747 9.013866 14.493225c1.5813789 4.977478 3.6371727 9.808533 6.1673813 14.493225c2.5302086 0 4.902279 -0.29278564 7.116211 -0.87835693c2.213932 -0.5856323 4.5860023 -0.87841797 7.116207 -0.87841797c1.2651062 0 4.427864 -2.3423462 9.488281 -7.0270386c3.1627579 -6.1035156E-5 4.5859985 0.5855713 4.2697296 1.7567139c-0.12651062 0.46844482 0.43013763 0.70269775 1.6699371 0.70269775c1.8597031 0 5.2565002 -0.5270996 10.190407 -1.5811157c3.795311 0 7.5906296 0.87835693 11.385941 2.6351318c3.1627579 -1.1712036 6.1673813 -2.4887695 9.013863 -3.9527588c2.8464813 -1.4639282 6.483658 -2.4887085 10.911522 -3.0743408c1.8976593 -1.1711426 3.953453 -2.9279175 6.1673813 -5.2702637c2.2139359 -2.3423462 4.586006 -3.5135498 7.116211 -3.5135498c2.5302048 0 4.7441406 0.5855713 6.6418 1.7567749c1.8976593 1.1711426 4.4278564 1.7567139 7.590622 1.7567139l6.6418 -7.9054565l0 -29.864868c0 -15.810852 -0.15814209 -31.768066 -0.47442627 -47.871643c-0.31626892 -16.103638 -0.79067993 -32.060852 -1.423233 -47.871704l9.488281 -6.1486816c0.6325531 -1.1711426 2.6883392 -3.5134888 6.1673737 -7.0270386c3.4790344 -3.5134888 7.274353 -7.0270386 11.385941 -10.540588c4.1115875 -3.5134888 8.223175 -6.734253 12.334763 -9.66217c4.1115875 -2.9279785 7.116211 -4.6846924 9.01387 -5.2703247c0.6325531 -1.7567444 2.2139282 -4.0990906 4.7441406 -7.0270386c2.5301971 -2.9279175 5.5348206 -6.0022583 9.013855 -9.222992c3.4790497 -3.2207336 6.958084 -6.1486816 10.437119 -8.783813c3.4790344 -2.6351624 6.1673737 -4.53833 8.065033 -5.709503l6.6418 -8.783813c6.3255157 -3.5135193 11.702209 -7.905426 16.130066 -13.17572c4.4278717 -5.270294 10.120834 -9.369385 17.078903 -12.297333c1.2651062 -2.927948 3.3208923 -5.1239014 6.167389 -6.58786c2.8464966 -1.4639893 4.9022827 -3.367157 6.167389 -5.709503c5.060425 -4.099121 9.962677 -8.3446045 14.706818 -12.736511c4.7441406 -4.3919067 9.646423 -8.930237 14.706848 -13.614929c3.7953186 -5.270294 7.906891 -10.101379 12.334747 -14.493286c4.427887 -4.3919067 9.804565 -8.051849 16.130096 -10.979767c8.855713 -9.954987 18.502136 -19.178009 28.93924 -27.669037c10.437103 -8.491028 21.664917 -18.592407 33.68341 -30.304169c1.2651062 -1.7567444 2.3720703 -3.5135193 3.3208923 -5.2702637c0.948822 -1.7567749 3.9534302 -4.099121 9.013855 -7.027069c1.2651062 -4.6846924 3.9534607 -8.3446045 8.065033 -10.979767c4.111603 -2.6351318 7.116211 -6.2950745 9.0138855 -10.979767c7.5906067 -4.6846924 12.967316 -10.540558 16.130066 -17.567596c0 -4.099121 -1.897644 -8.490997 -5.6929626 -13.17569c2.5302124 -2.3423462 3.7953186 -5.123886 3.7953186 -8.3446045c0 -3.2207336 1.2651062 -7.4662323 3.795288 -12.736511c-0.63253784 -2.3423462 -2.530182 -4.831085 -5.6929626 -7.466217c-3.1627502 -2.6351318 -6.6417847 -5.2702637 -10.437103 -7.9053802c-3.7953186 -2.6351318 -7.5906067 -5.123871 -11.385925 -7.466202c-3.7953186 -2.342331 -6.641815 -4.0990906 -8.539459 -5.2702484c-1.897644 -3.5135193 -9.171997 -8.490982 -21.82306 -14.932404c-2.530182 -2.9279175 -5.2185364 -5.2702637 -8.065033 -7.027008c-2.846466 -1.7567444 -5.2185364 -4.0990906 -7.116211 -7.0270233c-5.0603943 -2.9279175 -10.120819 -6.002228 -15.181244 -9.222931c-5.0603943 -3.2207184 -10.437103 -6.2950287 -16.130066 -9.222946c-6.958069 -4.684677 -14.86496 -7.9053802 -23.720703 -9.662109c-8.855713 -1.7567444 -16.130066 -5.855835 -21.823029 -12.297256c-6.325531 -2.342331 -12.334778 -5.416641 -18.02774 -9.222946c-5.6929626 -3.8062897 -11.385956 -7.173401 -17.078918 -10.101318c-5.6929626 -3.513504 -11.702209 -6.734215 -18.027725 -9.662125c-6.3255157 -2.9279175 -12.6510315 -5.855835 -18.976562 -8.783745c-6.3255157 -2.9279175 -14.706833 -7.0270004 -25.143936 -12.297249c-10.437103 -5.2702484 -18.81842 -8.490952 -25.143936 -9.662109c-2.5302124 -2.3423386 -4.7441406 -4.0990906 -6.6418 -5.2702637c-1.8976593 -1.1711655 -3.4790344 -2.9279175 -4.7441406 -5.2702637c-3.1627655 -0.5855789 -6.009247 -1.6103439 -8.539459 -3.0743027c-2.5301971 -1.4639587 -5.3766937 -2.7815247 -8.539444 -3.9526901c-0.6325531 -4.099098 -4.1115875 -7.0270195 -10.437103 -8.783764c-1.8976593 0.58559036 -3.6371841 1.463974 -5.2185593 2.635151c-1.5813828 1.1711769 -3.3209 2.3423538 -5.2185516 3.5135307c-1.8976593 -1.1711693 -3.3209 -2.6351318 -4.2697296 -4.3918877c-0.94882965 -1.7567558 -2.3720703 -2.927925 -4.2697296 -3.513504c-2.5302048 3.8146973E-6 -4.744133 0.5855942 -6.6417923 1.7567711c-1.8976593 1.1711769 -4.1115875 2.0495644 -6.6417923 2.6351547c-3.7953186 -3.5135078 -8.539459 -5.270252 -14.232422 -5.270241c-3.795311 1.1444092E-5 -7.748764 0.43920898 -11.860352 1.3176003c-4.1115875 0.87838745 -8.381317 1.6103821 -12.809177 2.19598c-3.795311 -4.0990944 -9.172005 -6.148632 -16.130077 -6.148617z" fill-rule="evenodd"/><defs><linearGradient id="p.2" gradientUnits="userSpaceOnUse" gradientTransform="matrix(26.232860307131183 1.6597645295298613 -1.6597645295298613 26.232860307131183 0.0 0.0)" spreadMethod="pad" x1="12.51706010920708" y1="-0.7284613194799885" x2="12.516965716760872" y2="25.504398987481363"><stop offset="0.0" stop-color="#ed213a"/><stop offset="1.0" stop-color="#93291e"/></linearGradient></defs><path fill="url(#p.2)" d="m514.85364 13.390246c-4.211029 -0.26643372 -8.200562 1.5348253 -11.968628 5.403779c-3.768036 3.8689518 -7.3976135 8.333433 -10.888672 13.39344c-3.4910889 5.060009 -6.4558105 10.15332 -8.8941345 15.279934c-2.438324 5.1266174 -4.10083 9.128788 -4.9875793 12.006512c-4.2487793 11.466488 -9.965729 21.079792 -17.15091 28.839901c-7.1851807 7.760109 -15.98645 16.00473 -26.40387 24.733864c-3.6940918 2.7000961 -6.520111 5.6018143 -8.478088 8.705139c-1.9579773 3.1033325 -4.119171 6.633873 -6.4835205 10.591637c-3.8050232 4.4533844 -7.425354 8.771759 -10.860962 12.955124c-3.4356384 4.183365 -7.0559387 8.5017395 -10.860962 12.955124c-11.452057 13.944565 -22.553192 27.911331 -33.303406 41.9003c-10.750214 13.988968 -20.48465 28.628967 -29.203308 43.92c-1.4776306 1.0800476 -3.768036 3.8689575 -6.871216 8.366745c-0.2958374 4.675415 -2.6047363 7.756531 -6.926697 9.243378c-4.321991 1.4868469 -6.6123962 4.275757 -6.8712463 8.36673c-0.1109314 1.7532959 -0.055664062 3.6637573 0.16583252 5.731476c0.22149658 2.067688 -0.77597046 3.91156 -2.9924316 5.531616c3.3243103 3.144165 7.424408 5.1638794 12.300293 6.059143c4.875885 0.8952637 8.975983 2.914978 12.300293 6.059143c3.3982544 1.9752808 5.3466187 4.5923157 5.8450623 7.851074c0.49847412 3.258728 1.7265015 6.1235657 3.684082 8.594482c1.2557678 2.4265137 3.2503662 4.313019 5.9837646 5.659485c2.7333984 1.3464966 4.7279663 3.2329712 5.983734 5.659485c2.622467 3.099762 4.524597 6.4473267 5.7063904 10.042694c1.1818237 3.5953674 3.1209106 6.35849 5.8173523 8.289398c14.109985 10.867767 27.185669 21.376709 39.22711 31.526825c18.690063 16.438416 36.5213 32.529114 53.493713 48.272125c16.972412 15.742981 35.19156 31.271484 54.65741 46.58545c5.355835 4.446228 7.7749023 10.760345 7.257202 18.942291c-0.2588501 4.090973 -1.986084 9.115906 -5.1817017 15.074738c-3.1956177 5.9588623 -6.7698975 12.333801 -10.72287 19.124939c-3.952942 6.7910767 -8.238312 13.2677 -12.85611 19.429993c-4.617798 6.1622314 -8.108887 11.222229 -10.473236 15.179993c-3.10318 4.4978027 -6.3633423 8.692261 -9.780487 12.583435c-3.4171143 3.8911133 -6.326355 8.107788 -8.727692 12.650024c-8.607727 13.53772 -17.557129 26.907166 -26.848175 40.108337c-9.291077 13.201111 -16.87378 27.243835 -22.748077 42.12805c2.7333984 1.3464966 4.7094727 3.5252075 5.928253 6.536133c1.2187805 3.0109253 5.9282837 6.536133 14.128479 10.575562c3.3982544 1.9752808 5.383606 4.0078735 5.9559937 6.0977783c0.5724182 2.0899048 3.3150635 3.2902832 8.227936 3.6010742c2.1055298 0.13323975 4.2295227 -0.025756836 6.37204 -0.4769287c2.1424866 -0.4512329 4.284973 -0.9024658 6.4274597 -1.3536377c2.7333984 1.3464355 4.9034424 3.2440796 6.510132 5.692749c1.6066895 2.4487305 4.164612 3.7841187 7.673828 4.0061646c1.403656 0.08880615 3.3522034 -0.08129883 5.845642 -0.51031494c1.2467041 -0.21447754 2.3525696 -0.29119873 3.3175964 -0.23016357c0.96502686 0.061035156 1.7892151 0.2598877 2.4725647 0.5964966c2.7333984 1.3464966 4.74646 2.940796 6.039215 4.782837c1.2927246 1.842102 2.9918518 2.829773 5.0973816 2.9629517c5.6147156 0.35528564 13.31662 -1.6511841 23.105804 -6.019348c9.789124 -4.368103 17.89746 -7.229004 24.324951 -8.582642c4.1748047 -10.297607 9.559326 -20.225342 16.153625 -29.783142c6.5942383 -9.5578 11.97876 -19.485474 16.153564 -29.783142c5.725647 -1.3980103 9.244324 -4.109253 10.555908 -8.133606c1.3115845 -4.024353 2.7617188 -7.453186 4.350281 -10.28656c2.4013672 -4.5421753 5.3290405 -9.051025 8.783203 -13.526611c3.4541016 -4.475586 6.381775 -8.984497 8.783142 -13.526672c3.1032104 -4.4978027 5.7077026 -9.467224 7.8135986 -14.908203c2.105896 -5.44104 4.6919556 -10.118225 7.7581787 -14.031616c1.5515747 -2.2489014 3.5925903 -3.880066 6.122986 -4.8934937c2.5303955 -1.0134277 4.5529175 -2.352356 6.067505 -4.0168457c3.8050537 -4.453369 6.4188232 -9.568909 7.8413696 -15.346558c1.4225464 -5.777649 4.073303 -11.477539 7.9522705 -17.099792c3.9159546 -6.206665 7.591736 -11.401672 11.027344 -15.5850525c3.435669 -4.1833496 5.44928 -10.950439 6.0409546 -20.30127c-1.2557983 -2.4265137 -2.3545532 -4.549713 -3.2963867 -6.3695984c-0.9418335 -1.8198853 -2.059082 -3.650879 -3.3518677 -5.4929504c2.0323486 -9.846436 1.6452026 -20.432709 -1.161377 -31.75882c-2.8066406 -11.326141 -10.08313 -18.827698 -21.829468 -22.50473c-11.782593 -14.241089 -25.430725 -26.839935 -40.944397 -37.79651c-15.513611 -10.9565735 -30.288452 -22.453156 -44.324524 -34.489777c-7.3134155 -6.917145 -14.488403 -13.23877 -21.524902 -18.964844c-7.036499 -5.7261047 -14.248474 -11.463287 -21.635925 -17.211578c-3.3242798 -3.144165 -6.473114 -6.2772217 -9.446503 -9.39917c-2.9733887 -3.1219788 -6.122223 -6.255005 -9.446503 -9.39917c-1.9945984 -1.8865051 -6.214691 -4.7939453 -12.660278 -8.722351c-6.445587 -3.9284363 -9.594452 -7.061493 -9.446533 -9.39917c0.1479187 -2.3377075 3.3065796 -7.7121277 9.475952 -16.123276c6.169403 -8.411148 13.243835 -17.205109 21.223297 -26.381866c7.9794617 -9.176773 15.755707 -17.92633 23.328766 -26.248657c7.573059 -8.322327 12.504822 -13.877945 14.795227 -16.66687c3.7680664 -3.8689423 6.825012 -7.6362 9.170898 -11.301758c2.3458862 -3.6655426 4.700989 -7.4772034 7.0653687 -11.434967c6.0584717 -6.6578674 12.301636 -13.450729 18.729492 -20.378616c6.4278564 -6.9278717 13.169861 -16.03624 20.225952 -27.325111c9.456726 -4.682556 16.60492 -11.858238 21.44458 -21.527046c4.8397217 -9.668808 7.536865 -18.886406 8.091553 -27.65279c0.6286621 -9.935242 -1.2731323 -18.857052 -5.705261 -26.765427c-5.577759 -0.93967056 -10.776794 -2.2954578 -15.597229 -4.0673637c-4.8204346 -1.771904 -10.038025 -2.8354778 -15.65271 -3.1907234c-3.5092163 -0.22202873 -6.713684 0.30867767 -9.613525 1.5921211c-2.8997803 1.2834415 -5.753357 1.8363514 -8.56073 1.6587296c-4.2109985 -0.26643562 -8.569763 -0.98229027 -13.076233 -2.1475658c-4.506531 -1.1652756 -8.828308 -2.4655552 -12.965393 -3.9008408c-4.838867 -1.4796925 -10.518127 -3.5993156 -17.037659 -6.3588734c-6.5195923 -2.7595577 -11.533936 -4.25035 -15.043152 -4.4723787z" fill-rule="evenodd"/></g></svg>