<svg version="1.1" viewBox="0.0 0.0 628.5459317585302 717.4435695538058" fill="none" stroke="none" stroke-linecap="square" stroke-miterlimit="10" xmlns:xlink="http://www.w3.org/1999/xlink" xmlns="http://www.w3.org/2000/svg"><clipPath id="p.0"><path d="m0 0l628.54596 0l0 717.44354l-628.54596 0l0 -717.44354z" clip-rule="nonzero"/></clipPath><g clip-path="url(#p.0)"><path fill="#000000" fill-opacity="0.0" d="m0 0l628.54596 0l0 717.44354l-628.54596 0z" fill-rule="evenodd"/><path fill="#000000" d="m3.9908137 4.9265094l620.15753 0l0 707.5906l-620.15753 0z" fill-rule="evenodd"/><path stroke="#000000" stroke-width="8.0" stroke-linejoin="round" stroke-linecap="butt" d="m3.9908137 4.9265094l620.15753 0l0 707.5906l-620.15753 0z" fill-rule="evenodd"/><path fill="#f1c40f" d="m523.7924 138.32051c-11.305237 0.9548645 -18.426727 1.6537018 -21.36438 2.0965118c-2.937683 0.44281006 -5.910614 1.3072052 -8.918823 2.5931702c-2.9508362 1.2356873 -5.759796 2.5956879 -8.426849 4.0799713c-2.6265564 1.5198059 -6.5021057 3.9563446 -11.6267395 7.309601c-1.8936768 1.6591034 -4.153534 3.8520813 -6.7795715 6.578964c-2.568634 2.6766052 -5.3702087 5.4507446 -8.404785 8.322464c-3.034546 2.871704 -5.9256287 5.6177216 -8.673248 8.238052c-2.6902466 2.570053 -4.264923 4.056183 -4.723999 4.4583893l-43.382935 38.00844l-26.85611 23.529022c-4.648163 4.0723267 -9.625641 8.006989 -14.932404 11.803955c-5.3067627 3.7969666 -10.80072 8.184113 -16.481812 13.161407c-5.2220154 4.5751038 -9.888611 8.983215 -13.999786 13.224335c-4.111206 4.24115 -8.376099 8.297333 -12.794739 12.168579l-39.25122 34.38855c-1.0329285 0.90496826 -3.270935 2.8657227 -6.71402 5.882263c-3.4430847 3.0165405 -7.000946 6.1336365 -10.673584 9.351288c-3.672638 3.2176514 -5.9672546 7.039276 -6.88385 11.464874c-0.5343933 2.7212524 -1.5072327 3.4636536 -2.9185028 2.227234c-0.8578186 -0.7515564 -1.877655 -2.234253 -3.0594635 -4.448059l0 0c-5.5726624 5.8767395 -9.322708 9.730438 -11.250076 11.561096c-1.8868713 1.8662109 -4.0640717 3.8802185 -6.531601 6.0420837c-2.5249481 2.2121277 -5.1393585 4.396118 -7.843292 6.5519714c-2.7039337 2.1558533 -5.5479126 4.540985 -8.531906 7.155304c-3.8447723 3.3684692 -7.2810364 6.592102 -10.308746 9.670898c-3.02771 3.078827 -6.2344055 6.101349 -9.620132 9.067627c-2.4675293 2.1618347 -5.4331207 4.440399 -8.896744 6.835663c-3.4636078 2.3952332 -7.2325745 5.377655 -11.3069 8.947235c-2.7544708 2.4132385 -4.6126404 4.2542725 -5.5744934 5.523163c-0.9618683 1.2688904 -1.6149445 2.0541382 -1.959259 2.3558044c-1.2624512 1.1060486 -2.6431274 2.209137 -4.141968 3.309204c-1.4988403 1.1000671 -3.424652 2.6807556 -5.7774353 4.7420654c-8.479294 7.855011 -16.457123 15.696869 -23.933456 23.525543c-7.418953 7.778412 -15.547058 15.538818 -24.384354 23.281311c-2.3017273 3.0110168 -4.888794 6.023407 -7.7611847 9.03714c-2.8318558 3.049286 -5.796158 8.34552 -8.892876 15.888672c2.031067 3.6898804 3.4385529 6.079315 4.2224197 7.1683655c0.7670288 1.1747437 1.8599701 2.383667 3.278778 3.626709c3.9321136 3.4449463 8.767685 3.257141 14.506668 -0.56329346l0 0c-4.1454086 3.2056274 -5.5744934 5.5231323 -4.2873077 6.9525146c1.2871857 1.4293823 2.3822098 3.595337 3.2850647 6.497925c5.6604843 2.1437988 10.095108 4.1185913 13.303909 5.9243164c3.1513824 1.8560181 5.6878815 2.972168 7.6094513 3.3485107c1.3786774 2.71698 2.8720245 4.779846 4.4799957 6.1885986c3.106308 2.7214355 6.6404114 3.001892 10.602295 0.8413086c6.0532684 -3.2434692 11.166306 -6.053894 15.339081 -8.431152l0 0c-0.0046081543 -7.324219E-4 -0.007736206 -0.0017700195 -0.009353638 -0.0031738281c-0.047027588 -0.04119873 1.1648407 -0.38885498 3.63562 -1.0429688c2.6133728 -0.7269287 5.7850494 -2.7243042 9.515076 -5.9922485c4.2464905 -3.720459 8.23288 -7.568115 11.959213 -11.543091c3.7668762 -3.9395142 7.500046 -7.7073975 11.199539 -11.303741c8.006485 -7.866974 16.105927 -15.602295 24.298279 -23.205902c8.24971 -7.6539 16.764542 -15.326935 25.544418 -23.019135c5.968033 -5.228668 12.0863495 -10.375916 18.354965 -15.441772c6.2686462 -5.065857 12.616516 -10.414246 19.04361 -16.045105c2.4675293 -2.1618347 3.530487 -3.945465 3.1888428 -5.350891c-0.2437439 -1.4201355 0.34378052 -1.5086975 1.7625732 -0.26568604c7.0583496 -6.183899 14.238281 -12.261261 21.539856 -18.232086c7.301544 -5.970825 14.653656 -12.199005 22.056305 -18.68457c5.394165 -4.7259216 10.551941 -9.457825 15.473358 -14.19574c4.921417 -4.737915 9.84967 -9.268707 14.7847595 -13.592407c1.4346313 -1.256897 3.2456665 -2.73703 5.433136 -4.4404297c2.1874695 -1.7033691 4.285431 -3.4348755 6.293915 -5.194519c5.394165 -4.7259216 10.551971 -9.457825 15.473358 -14.19574c4.921417 -4.737915 9.84967 -9.268707 14.7847595 -13.592407c4.6481934 -4.072357 9.625641 -8.006989 14.932434 -11.803986c5.3067627 -3.7969666 10.80069 -8.184113 16.481812 -13.161407c8.091248 -7.088867 16.233063 -14.43512 24.425385 -22.038727c8.192352 -7.603607 16.334167 -14.94986 24.425415 -22.038742c3.4430847 -3.0165405 7.352112 -6.22818 11.727051 -9.634949c4.4154663 -3.371231 8.699066 -7.159668 12.850769 -11.365295c3.4868164 -3.481018 7.0022583 -6.9871674 10.546448 -10.518448c3.6420898 -3.546051 7.1846924 -6.827347 10.627808 -9.843887l9.210266 -8.069244c2.7023315 -5.777069 4.128845 -10.258713 4.279419 -13.444977c0.24853516 -3.201004 0.17089844 -7.039673 -0.23284912 -11.516022c-3.4050903 -2.9832764 -5.739685 -5.732483 -7.003723 -8.24762c-0.8043213 -1.6005249 -1.7494507 -2.8764343 -2.835205 -3.8277283c-0.6204834 -0.5435791 -1.2868652 -0.98117065 -1.9992065 -1.3127594c1.4641113 -3.3426208 0.87872314 -6.168167 -1.7562256 -8.476654c-2.5943604 -2.2729797 -5.37146 -5.309311 -8.331177 -9.108978c-0.41577148 0.030029297 -0.75567627 -0.070617676 -1.0197144 -0.30192566c-1.0824585 -0.948349 -0.88916016 -4.093231 0.57995605 -9.434631z" fill-rule="evenodd"/><path fill="#f1c40f" d="m92.3358 186.55388c1.0898819 9.904694 1.8875351 16.143906 2.3929672 18.717636c0.5054321 2.5737305 1.4920502 5.1783752 2.9598465 7.813919c1.4104233 2.585266 2.9627228 5.046234 4.6568985 7.382889c1.7347183 2.3011475 4.5157776 5.696594 8.343201 10.18634c1.8936996 1.6590881 4.396782 3.6389923 7.509247 5.939682c3.0550766 2.250412 6.221504 4.7049255 9.499283 7.363556c3.2777786 2.658615 6.4120865 5.1915436 9.402946 7.5987854c2.9334717 2.3569489 4.6297455 3.7365417 5.0888214 4.138748l43.382935 38.008423l26.856094 23.529022c4.648178 4.0723267 9.139206 8.4331665 13.4730835 13.08252c4.3338776 4.649353 9.34137 9.4626465 15.022461 14.439941c5.2220306 4.5751038 10.253464 8.663574 15.094299 12.265442c4.840851 3.6018677 9.470612 7.3384094 13.889221 11.209656l39.25125 34.38855c1.0329285 0.90496826 3.270935 2.8657227 6.71402 5.882263c3.4430847 3.0165405 7.000946 6.1336365 10.673584 9.351288c3.6726074 3.2176514 8.034637 5.227997 13.086029 6.0310364c3.1060486 0.46820068 3.9534302 1.3205261 2.5421753 2.5569458c-0.8578491 0.7515564 -2.550171 1.64505 -5.0770264 2.6804504l0 0c6.7077026 4.8822937 11.106354 8.167755 13.195862 9.856354c2.1300964 1.6531067 4.4289246 3.5605774 6.896454 5.7224426c2.5249329 2.2121277 5.0177307 4.502655 7.4784546 6.8716125c2.4606934 2.3689575 5.183075 4.8605957 8.167084 7.474945c3.844757 3.3684387 7.524231 6.378998 11.038391 9.031616c3.5141602 2.652649 6.964081 5.4620667 10.3497925 8.428345c2.4675293 2.1618347 5.0682983 4.7600403 7.802246 7.794586c2.7339478 3.0345154 6.1380615 6.336548 10.212402 9.906128c2.754486 2.4132385 4.8558655 4.0411987 6.3041687 4.883911c1.4483032 0.8426819 2.3446045 1.414856 2.6889343 1.7165222c1.2624512 1.1060486 2.521515 2.3156738 3.7771301 3.6288452c1.2556152 1.3131714 3.0598145 3.0003662 5.4125977 5.0617065c8.965729 7.428833 17.916443 14.418335 26.852112 20.968445c8.878326 6.499878 17.736084 13.620972 26.573395 21.363464c3.4367676 2.0166016 6.875122 4.283142 10.315033 6.7996826c3.4804382 2.481079 9.525574 5.078125 18.135376 7.7911987c4.211609 -1.779419 6.938965 -3.0125732 8.181946 -3.6993408c1.3408813 -0.6719971 2.7207031 -1.6295166 4.1395264 -2.8725586c3.932129 -3.4450073 3.7177734 -7.6815186 -0.64294434 -12.709534l0 0c3.6589355 3.631897 6.304138 4.883911 7.935669 3.7562256c1.6314697 -1.1277466 4.10376 -2.0870972 7.416748 -2.8781128c2.4469604 -4.9592285 4.700989 -8.844482 6.762024 -11.655762c2.1184082 -2.7609863 3.392456 -4.9832153 3.8220215 -6.666748c3.1011353 -1.2078857 5.4556885 -2.5162354 7.0636597 -3.9249878c3.1062622 -2.7214966 3.4263306 -5.817749 0.9602661 -9.288818c-3.7021484 -5.3033752 -6.909912 -9.7829895 -9.623352 -13.438812l0 0c-7.9345703E-4 0.0040283203 -0.0020141602 0.0067749023 -0.0036010742 0.0082092285c-0.047058105 0.04119873 -0.44384766 -1.0205383 -1.1904297 -3.1852417c-0.8297119 -2.2896118 -3.109558 -5.0683594 -6.8395996 -8.336273c-4.246521 -3.7204285 -8.638245 -7.2129517 -13.175354 -10.477661c-4.496521 -3.3002014 -8.797241 -6.5708923 -12.9021 -9.812073c-8.97937 -7.014618 -17.808502 -14.110657 -26.487274 -21.288086c-8.736176 -7.2276917 -17.494202 -14.687653 -26.274078 -22.379822c-5.968048 -5.2286987 -11.84314 -10.58905 -17.625336 -16.081085c-5.7821655 -5.492035 -11.886841 -11.053497 -18.313904 -16.684387c-2.4675598 -2.1618347 -4.5033875 -3.0930786 -6.1075134 -2.7937622c-1.6209717 0.2135315 -1.7220764 -0.3012085 -0.30325317 -1.5442505c-7.0583496 -6.183899 -13.995056 -12.474365 -20.81018 -18.871368c-6.8151245 -6.397003 -13.923981 -12.838287 -21.32663 -19.323853c-5.3941956 -4.7259216 -10.795197 -9.24472 -16.203033 -13.5564575c-5.4078674 -4.3117065 -10.579346 -8.629425 -15.514435 -12.953125c-1.4346313 -1.256897 -3.124054 -2.8435974 -5.0682983 -4.7600403c-1.9442444 -1.9164734 -3.9206238 -3.754547 -5.929077 -5.5141907c-5.394165 -4.7259216 -10.795197 -9.244751 -16.203033 -13.5564575c-5.4078674 -4.3117065 -10.579346 -8.629456 -15.514435 -12.9531555c-4.648163 -4.0723267 -9.139191 -8.4331665 -13.4730835 -13.082489c-4.333893 -4.649353 -9.34137 -9.462677 -15.022461 -14.439972c-8.091278 -7.088867 -16.476288 -14.222015 -25.15509 -21.39946c-8.678787 -7.177429 -17.063812 -14.310593 -25.155075 -21.39946c-3.4430847 -3.0165405 -7.1088715 -6.441284 -10.99736 -10.274231c-3.8479462 -3.868454 -8.172073 -7.6213684 -12.972397 -11.258759c-3.973236 -3.0548248 -7.9751587 -6.134781 -12.005783 -9.239899c-4.04747 -3.1908875 -7.792755 -6.2946014 -11.23584 -9.311142l-9.210266 -8.06926c-6.5939636 -2.3675995 -11.709335 -3.6173553 -15.34613 -3.749298c-3.6536407 -0.21772766 -8.03511 -0.1497345 -13.144424 0.20401001c-3.4051208 2.9832764 -6.5430603 5.0286407 -9.413849 6.1360474c-1.8268585 0.7047272 -3.2831879 1.5327301 -4.3689804 2.4840088c-0.6204529 0.54359436 -1.1199188 1.1274414 -1.4983902 1.7515259c-3.815277 -1.2827301 -7.0403748 -0.7698517 -9.675293 1.5386353c-2.5943756 2.2729797 -6.060051 4.706009 -10.397011 7.2990723c0.03427887 0.36428833 -0.080596924 0.6620941 -0.34461212 0.8934021c-1.0824585 0.948349 -4.672035 0.77897644 -10.768723 -0.5081024z" fill-rule="evenodd"/><path fill="#f1c40f" d="m100.47475 69.80158c-7.2233047 8.365959 -11.69487 13.710876 -13.414703 16.034752c-1.719841 2.3238754 -3.1243668 4.996338 -4.2136 8.017372c-1.0892258 2.9435806 -1.9778061 5.8871613 -2.665741 8.830727c-0.6306076 2.9435806 -1.4045334 7.4364014 -2.3217773 13.47847c0 2.5562668 0.17198181 5.7709503 0.51595306 9.644081c0.34396362 3.795662 0.60193634 7.8236923 0.7739258 12.084145c0.17198181 4.2604218 0.34396362 8.327209 0.51594543 12.200333c0.17198944 3.7956543 0.25798035 6.0033417 0.25798035 6.623047l0 58.56163l0 36.252426c0 6.274475 -0.34397125 12.665131 -1.0319061 19.171967c-0.6879349 6.506836 -1.0318985 13.594666 -1.0318985 21.263458c0 7.0490723 0.25797272 13.594666 0.7739258 19.636719c0.51595306 6.0420837 0.7739258 12.045441 0.7739258 18.01004l0 52.984314c0 1.3943176 0 4.4153748 0 9.06311c0 4.6477356 0 9.450409 0 14.40802c0 4.957611 1.4618607 9.450439 4.3855743 13.478455c1.8184128 2.4570618 1.7297134 3.685608 -0.26610565 3.685608c-1.2131424 0 -3.1309128 -0.45388794 -5.753311 -1.3617249l0 0c0.8025894 8.288513 1.2612152 13.788361 1.3758698 16.499512c0.17198181 2.7112122 0.25797272 5.732239 0.25797272 9.06311c0 3.4083557 -0.085990906 6.855438 -0.25797272 10.341248c-0.17198944 3.4858093 -0.25798035 7.2427673 -0.25798035 11.270782c0 5.189972 0.17198944 9.992645 0.51595306 14.40802c0.34396362 4.415344 0.51595306 8.908173 0.51595306 13.478455c0 3.3308716 -0.25798035 7.0878296 -0.7739258 11.270813c-0.51595306 4.182953 -0.7739258 9.0243225 -0.7739258 14.5242c0 3.7182007 0.17198181 6.390686 0.51594543 8.017395c0.34397125 1.626709 0.51595306 2.6724243 0.51595306 3.137207c0 1.7041626 -0.085990906 3.4857788 -0.25797272 5.3449097c-0.17198944 1.8590698 -0.25798035 4.376587 -0.25798035 7.5526123c0.34397125 11.774292 1.0319061 23.200012 2.0638046 34.2771c1.0318985 10.999634 1.5478516 22.464111 1.5478516 34.39337c0.8025894 3.873108 1.4045334 7.9398804 1.8058243 12.200317c0.4586258 4.260437 2.637085 10.341248 6.53537 18.24237c4.4142456 1.4718018 7.3379593 2.3626099 8.771156 2.6724854c1.4905243 0.3873291 3.2390213 0.5809326 5.2454987 0.5809326c5.5607986 0 8.828484 -3.4083862 9.803055 -10.225037l0 0c-0.34396362 5.267456 0.51595306 8.017334 2.57975 8.249756c2.0638046 0.23236084 4.5862274 1.1619263 7.567276 2.7886353c5.732773 -2.1689453 10.462326 -3.640747 14.188629 -4.4154053c3.7263184 -0.69714355 6.4207153 -1.5492554 8.083221 -2.5562744c3.167694 1.1625366 5.8885345 1.7437744 8.162521 1.7437744c4.3929443 0 7.1182404 -2.1692505 8.175919 -6.5077515c1.6624908 -6.5842896 3.0097046 -12.200317 4.0416107 -16.848083l0 0c-0.003829956 0.0025634766 -0.006881714 0.0038452148 -0.009185791 0.0038452148c-0.0664978 0 0.5098419 -1.0857544 1.7290192 -3.2572632c1.2612152 -2.3239136 1.8918152 -6.003357 1.8918152 -11.038391c0 -5.7323 -0.28663635 -11.387024 -0.8599243 -16.964294c-0.51594543 -5.5773315 -0.9172363 -10.999695 -1.2038727 -16.26715c-0.6879425 -11.4644165 -1.2038879 -22.890137 -1.5478516 -34.2771c-0.34397888 -11.4644165 -0.5159607 -23.122559 -0.5159607 -34.974335c0 -8.056091 0.17198181 -16.15091 0.5159607 -24.284485c0.34396362 -8.133545 0.51594543 -16.538239 0.51594543 -25.21402c0 -3.3308716 -0.6879425 -5.4223633 -2.063797 -6.274475c-1.3185425 -0.9295349 -0.97457886 -1.3943176 1.0318909 -1.3943176c0 -9.527863 0.17198181 -19.055756 0.5159607 -28.583649c0.34396362 -9.527893 0.51594543 -19.288147 0.51594543 -29.280823c0 -7.2814636 -0.17198181 -14.40802 -0.51594543 -21.379639c-0.34397888 -6.9716187 -0.5159607 -13.78833 -0.5159607 -20.450073c0 -1.9365845 0.085998535 -4.299164 0.25798035 -7.0878296c0.17198181 -2.7886353 0.25798035 -5.538574 0.25798035 -8.249756c0 -7.2814636 -0.17199707 -14.40802 -0.5159607 -21.379639c-0.34396362 -6.9716187 -0.51594543 -13.78833 -0.51594543 -20.450073c0 -6.274475 0.34396362 -12.665131 1.0319061 -19.171967c0.68792725 -6.5068665 1.0318909 -13.594666 1.0318909 -21.263458c0 -10.922211 -0.17198181 -22.076797 -0.51594543 -33.46379c-0.34396362 -11.386978 -0.51594543 -22.541565 -0.51594543 -33.463776c0 -4.647751 0.17198181 -9.760269 0.51594543 -15.33757c0.4012909 -5.577301 0.3726349 -11.386993 -0.085998535 -17.429062c-0.34396362 -5.0350647 -0.68792725 -10.108841 -1.0318909 -15.2213745c-0.28663635 -5.189972 -0.42996216 -10.108849 -0.42996216 -14.756592l0 -12.432732c-2.7517395 -6.274452 -5.360153 -10.689812 -7.825241 -13.246071c-2.4077759 -2.6337128 -5.5608063 -5.5385513 -9.459091 -8.714508c-4.8155365 7.6293945E-6 -8.685165 -0.54222107 -11.608887 -1.6266937c-1.8605499 -0.69010925 -3.5585938 -1.0351715 -5.094116 -1.0351639c-0.87745667 0 -1.7018433 0.11267853 -2.4731598 0.3380127c-1.6625061 -3.563263 -4.3569107 -5.344902 -8.083221 -5.3448944c-3.6689758 7.6293945E-6 -8.083221 -0.46475983 -13.242722 -1.3943024c-0.26978302 0.30377197 -0.59135437 0.45565796 -0.9647217 0.45565796c-1.5308151 0 -3.932312 -2.5532227 -7.2044983 -7.6596527z" fill-rule="evenodd"/></g></svg>