<svg version="1.1" viewBox="0.0 0.0 692.496062992126 713.7821522309712" fill="none" stroke="none" stroke-linecap="square" stroke-miterlimit="10" xmlns:xlink="http://www.w3.org/1999/xlink" xmlns="http://www.w3.org/2000/svg"><clipPath id="p.0"><path d="m0 0l692.49603 0l0 713.78217l-692.49603 0l0 -713.78217z" clip-rule="nonzero"/></clipPath><g clip-path="url(#p.0)"><path fill="#000000" fill-opacity="0.0" d="m0 0l692.49603 0l0 713.78217l-692.49603 0z" fill-rule="evenodd"/><defs><linearGradient id="p.1" gradientUnits="userSpaceOnUse" gradientTransform="matrix(25.5343498943402 -6.261572891702853E-5 6.261572891702853E-5 25.5343498943402 0.0 0.0)" spreadMethod="pad" x1="0.8538423332188747" y1="1.9150684023295232" x2="0.8537498825851021" y2="27.44941829650236"><stop offset="0.0" stop-color="#e96443"/><stop offset="1.0" stop-color="#904e95"/></linearGradient></defs><path fill="url(#p.1)" d="m156.58797 193.88803c1.2655792 1.1716003 3.4803314 2.4896545 6.644287 3.9541626c3.1639404 1.464508 6.960678 2.196762 11.390198 2.1967468c6.327881 1.1716003 12.339386 4.100601 18.034485 8.787033c1.2655792 0 3.4803314 0.5858002 6.644272 1.7574005c3.1639557 1.1716156 6.327896 2.4896698 9.491837 3.9541626c3.1639557 1.464508 6.169693 3.07547 9.017242 4.8328857c2.8475494 1.7574005 4.587723 3.2219086 5.2205048 4.393524c12.655792 4.6864166 24.678772 10.39798 36.06897 17.13472c11.390198 6.73674 22.46402 13.327026 33.221436 19.770859c-4.429535 9.95871 -10.757416 18.45288 -18.983673 25.482574c-8.226257 7.0296936 -18.034485 16.10971 -29.424698 27.24002c-13.288559 13.473572 -26.260727 26.947144 -38.916504 40.420685c-12.655792 13.473572 -26.260742 26.361328 -40.814896 38.66327c-1.8983612 1.7574158 -3.4803314 3.954193 -4.7459106 6.590332c-1.2655792 2.6361084 -3.4803467 4.539978 -6.644287 5.711609c-1.8983612 -7.6154785 -2.8475494 -15.2309265 -2.8475494 -22.846405c0 -2.9290466 0.316391 -5.8580627 0.94918823 -8.787079c0.632782 -2.9290466 0.949173 -5.8580627 0.949173 -8.787109c0 -2.929016 -0.316391 -6.15094 -0.949173 -9.6657715c-0.63279724 -3.5148315 -0.94918823 -6.7367554 -0.94918823 -9.665802l1.8983612 -46.571533c0 -12.887726 0.15820312 -25.921875 0.47459412 -39.10251c0.316391 -13.180634 0.47459412 -26.507706 0.47459412 -39.98123c0 -2.343216 -0.15820312 -4.5399933 -0.47459412 -6.590317c-0.316391 -2.0503082 -0.47459412 -3.9541779 -0.47459412 -5.7115936c0.63279724 -1.1716156 1.2655792 -2.489685 1.8983765 -3.954193c0.632782 -1.4645233 0.949173 -3.6612854 0.949173 -6.590317l1.8983765 -2.6361237zm-112.95282 -144.98659c-5.062313 1.1444092E-5 -8.859047 1.7574387 -11.390202 5.272278l0.9491844 14.05933c0 18.159966 -0.9491844 36.31994 -2.8475513 54.47991c0 4.1006393 -0.3163929 8.201279 -0.9491825 12.301926c-0.6327896 4.1006317 -0.9491844 8.201279 -0.9491844 12.30191c0 8.201279 0.1581974 15.963196 0.4745922 23.285767c0.3163948 7.322571 0.4745922 15.084488 0.4745922 23.285767c0 24.603836 -0.4745922 49.35411 -1.4237747 74.250854c-0.9491844 24.896729 -1.4237747 50.818634 -1.4237747 77.765686c-0.6327896 5.2722473 -1.2655792 10.6909485 -1.8983669 16.256104c-0.6327896 5.565155 -0.9491844 11.569672 -0.9491844 18.01352c0 9.958679 0.4745922 20.210297 1.4237747 30.754791c0.9491844 10.544495 1.4237766 20.796082 1.4237766 30.754791c0 17.574158 -0.6327896 35.29477 -1.8983669 53.161835c-1.2655792 17.867096 -1.8983669 35.587677 -1.8983669 53.161835c0 7.6154785 0.6327877 15.084534 1.8983669 22.407104c1.2655773 7.32251 1.8983669 14.498657 1.8983669 21.52832c0 3.5148315 -0.1581974 7.1760864 -0.4745922 10.983826c-0.3163948 3.8077393 -0.4745922 7.761963 -0.4745922 11.86261c0 7.029663 0.3163948 14.645142 0.9491844 22.846375c0.6327877 8.201294 -0.9491844 15.523865 -4.7459183 21.967712c2.5311565 2.3432617 2.8475513 6.4438477 0.9491844 12.301941c4.4295216 4.6864014 7.4352684 9.519287 9.017242 14.498657c1.5819702 4.97937 3.6385345 9.812256 6.169689 14.498657c2.5311584 0 4.9041176 -0.2929077 7.1188774 -0.87872314c2.2147598 -0.5858154 4.587719 -0.87872314 7.1188736 -0.87872314c1.2655792 0 4.4295235 -2.3432007 9.491837 -7.029663c3.1639442 0 4.587719 0.5857544 4.2713203 1.7573853c-0.12654877 0.46862793 0.43030548 0.7029419 1.6705627 0.7029419c1.860405 0 5.2584763 -0.5272827 10.194229 -1.581665c3.7967377 0 7.5934677 0.8786621 11.390205 2.6361084c3.1639404 -1.1716309 6.169693 -2.489685 9.017242 -3.9542236c2.8475494 -1.4645386 6.486084 -2.489685 10.915604 -3.0755005c1.8983688 -1.1716309 3.9549332 -2.9290771 6.169693 -5.272278c2.2147598 -2.3432007 4.587723 -3.5148315 7.118881 -3.5148315c2.5311508 0 4.7459106 0.5857544 6.6442795 1.7573853c1.8983612 1.1716309 4.4295197 1.7573853 7.59346 1.7573853l6.644287 -7.908386l0 -29.876099c0 -15.816711 -0.15818787 -31.779907 -0.47459412 -47.889587c-0.316391 -16.10962 -0.7909851 -32.072815 -1.4237671 -47.889587l9.491837 -6.151001c0.632782 -1.1715698 2.6893463 -3.5148315 6.169693 -7.029663c3.4803314 -3.5148315 7.277069 -7.029663 11.390198 -10.544495c4.1131287 -3.5148926 8.226257 -6.7368164 12.339386 -9.6658325c4.1131287 -2.9290771 7.118866 -4.6864624 9.017242 -5.272278c0.632782 -1.7574158 2.2147522 -4.100647 4.7459106 -7.0296936c2.5311584 -2.929016 5.536911 -6.0045166 9.017242 -9.22644c3.4803467 -3.2219543 6.960678 -6.1509705 10.441025 -8.787109c3.4803314 -2.636139 6.1696777 -4.5400085 8.068054 -5.7116394l6.644287 -8.787079c6.327881 -3.514862 11.706589 -7.9084167 16.136108 -13.180664c4.4295197 -5.272278 10.124619 -9.372925 17.085312 -12.301971c1.265564 -2.929016 3.3221436 -5.1257935 6.1696777 -6.590332c2.8475647 -1.464508 4.904114 -3.3683777 6.1697083 -5.711609c5.0622864 -4.100647 9.9664 -8.347748 14.712341 -12.7413025c4.7459106 -4.3935547 9.650024 -8.933563 14.712341 -13.620026c3.7967224 -5.2722473 7.909851 -10.105164 12.339386 -14.498718c4.4295044 -4.3935547 9.808228 -8.05484 16.136108 -10.983887c8.859039 -9.95871 18.509064 -19.18518 28.950104 -27.679382c10.4410095 -8.494202 21.673004 -18.599365 33.695984 -30.315521c1.2655945 -1.7574158 2.3729858 -3.5148315 3.3221436 -5.2722473c0.94918823 -1.7574158 3.954956 -4.100647 9.017242 -7.0296936c1.2655945 -4.686432 3.954956 -8.347717 8.068054 -10.983856c4.1131287 -2.636139 7.1188965 -6.2974243 9.017242 -10.983887c7.5934753 -4.6864624 12.9721985 -10.544525 16.136139 -17.574188c0 -4.100647 -1.8983765 -8.494202 -5.695099 -13.180634c2.5311584 -2.3432312 3.7967224 -5.1257935 3.7967224 -8.347733c0 -3.2219238 1.2655945 -7.4690094 3.7967224 -12.741272c-0.632782 -2.343216 -2.531128 -4.8328857 -5.695099 -7.4690094c-3.1639404 -2.6361084 -6.6442566 -5.272232 -10.4410095 -7.9083405c-3.7967224 -2.6361237 -7.5934753 -5.125778 -11.390198 -7.468994c-3.7967224 -2.343216 -6.644287 -4.1006317 -8.542664 -5.272232c-1.898346 -3.5148315 -9.175415 -8.494156 -21.831207 -14.937988c-2.5311584 -2.929016 -5.2204895 -5.272232 -8.068054 -7.029648c-2.8475647 -1.7574005 -5.22052 -4.1006165 -7.118866 -7.029648c-5.062317 -2.929016 -10.124634 -6.004471 -15.186951 -9.226395c-5.062317 -3.2219238 -10.4410095 -6.2973785 -16.136108 -9.226395c-6.9606934 -4.686432 -14.870544 -7.9083405 -23.729584 -9.665741c-8.859039 -1.7573853 -16.136108 -5.858017 -21.831207 -12.301849c-6.3279114 -2.343216 -12.339386 -5.4186707 -18.034485 -9.226395c-5.695099 -3.807724 -11.390198 -7.176094 -17.085297 -10.10511c-5.695114 -3.5148163 -11.706604 -6.7367325 -18.0345 -9.665741c-6.327881 -2.929016 -12.655777 -5.8580246 -18.983673 -8.787041c-6.327881 -2.9290085 -14.712341 -7.029625 -25.15335 -12.301849c-10.441025 -5.2722244 -18.82547 -8.494133 -25.153366 -9.665733c-2.5311432 -2.343216 -4.7459106 -4.100624 -6.644272 -5.272232c-1.8983765 -1.171608 -3.4803467 -2.929016 -4.745926 -5.272232c-3.1639404 -0.5858002 -6.01149 -1.6109543 -8.542648 -3.0754623c-2.5311584 -1.464508 -5.378708 -2.7825623 -8.542648 -3.9541664c-0.63279724 -4.1006355 -4.1131287 -7.0296555 -10.441025 -8.787056c-1.8983612 0.5858116 -3.638527 1.4645233 -5.2205048 2.636139c-1.5819702 1.1716156 -3.322136 2.3432274 -5.2205048 3.514843c-1.8983688 -1.1716042 -3.3221436 -2.636116 -4.271324 -4.393528c-0.94918823 -1.7574158 -2.372963 -2.9290237 -4.271324 -3.514824c-2.5311584 7.6293945E-6 -4.7459183 0.58581924 -6.644287 1.7574348c-1.8983688 1.1716156 -4.1131287 2.0503273 -6.644287 2.636139c-3.79673 -3.514824 -8.542648 -5.2722282 -14.237747 -5.272213c-3.79673 7.6293945E-6 -7.751663 0.43937302 -11.864792 1.3180923c-4.1131287 0.8787155 -8.384453 1.6109848 -12.813976 2.1968002c-3.7967339 -4.100628 -9.175438 -6.150936 -16.136116 -6.150917z" fill-rule="evenodd"/><defs><linearGradient id="p.2" gradientUnits="userSpaceOnUse" gradientTransform="matrix(26.23777293495864 1.6600753536382018 -1.6600753536382018 26.23777293495864 0.0 0.0)" spreadMethod="pad" x1="12.51020832791855" y1="-0.7922033878836011" x2="12.510113173189106" y2="25.445569546902497"><stop offset="0.0" stop-color="#e96443"/><stop offset="1.0" stop-color="#904e95"/></linearGradient></defs><path fill="url(#p.2)" d="m514.9108 11.711125c-4.2126465 -0.26653385 -8.203674 1.5354004 -11.973145 5.4058027c-3.7694397 3.8704014 -7.40036 8.336554 -10.892761 13.398457c-3.4924011 5.061905 -6.458191 10.157124 -8.89743 15.28566c-2.4392395 5.128536 -4.102417 9.132206 -4.9894714 12.011005c-4.250366 11.470787 -9.969482 21.087685 -17.157318 28.8507c-7.187866 7.7630157 -15.992462 16.010727 -26.413757 24.743134c-3.6954956 2.7011108 -6.522583 5.6039124 -8.481293 8.708405c-1.9587097 3.1044846 -4.120697 6.6363525 -6.485962 10.595596c-3.806427 4.4550476 -7.4281006 8.77504 -10.865021 12.959976c-3.4368896 4.1849365 -7.058563 8.504929 -10.865021 12.959976c-11.456329 13.949783 -22.561646 27.921783 -33.315887 41.915985c-10.754211 13.994217 -20.49231 28.639694 -29.214233 43.936462c-1.4781799 1.0804443 -3.7694397 3.870407 -6.87381 8.369873c-0.29592896 4.6771545 -2.6056824 7.759445 -6.929291 9.246841c-4.323578 1.4873962 -6.6148376 4.2773438 -6.8737793 8.369873c-0.11099243 1.7539368 -0.05569458 3.6651306 0.16589355 5.733612c0.22155762 2.068451 -0.77627563 3.913025 -2.9935608 5.5336914c3.325531 3.1453247 7.427185 5.165802 12.304901 6.0614014c4.877716 0.89559937 8.97934 2.9160767 12.304901 6.0614014c3.3995056 1.9760437 5.3486023 4.594055 5.8472595 7.8540344c0.4986267 3.2599487 1.7271118 6.1258545 3.6854553 8.597717c1.2562256 2.4274292 3.2515564 4.3146057 5.9859924 5.6615906c2.7344055 1.3469849 4.7297363 3.234192 5.985962 5.661621c2.6234436 3.100891 4.526306 6.449707 5.708557 10.046417c1.182251 3.5967407 3.1220703 6.360901 5.819519 8.292511c14.115265 10.871826 27.195862 21.384705 39.24182 31.538635c18.697021 16.44458 36.534943 32.54132 53.513733 48.290222c16.97879 15.748871 35.204742 31.283173 54.677887 46.602905c5.357849 4.447876 7.777832 10.764343 7.2599487 18.949371c-0.25897217 4.0925293 -1.9868774 9.119324 -5.183655 15.080383c-3.1968384 5.96109 -6.772461 12.33844 -10.726898 19.13208c-3.9544373 6.79364 -8.241394 13.272705 -12.860931 19.437256c-4.6195374 6.164551 -8.111908 11.226501 -10.477173 15.18573c-3.1043396 4.4994507 -6.3657227 8.695496 -9.784119 12.588135c-3.4184265 3.8925781 -6.3287354 8.11084 -8.730988 12.654724c-8.610931 13.542847 -17.56369 26.917297 -26.858246 40.123413c-9.294525 13.206055 -16.880066 27.254028 -22.756592 42.1438c2.734436 1.3469849 4.7112427 3.5264893 5.9305115 6.538574c1.2192383 3.012085 5.930481 6.538574 14.133759 10.579529c3.3995056 1.9760132 5.3855896 4.0093994 5.9582214 6.1000977c0.57263184 2.0906372 3.3163147 3.291504 8.231018 3.602417c2.1062927 0.13330078 4.2311096 -0.025756836 6.3743896 -0.47717285c2.1433105 -0.45135498 4.286621 -0.90270996 6.429901 -1.354126c2.734436 1.3469849 4.9052734 3.2453003 6.5125732 5.6949463c1.6072693 2.449646 4.166168 3.7855225 7.6766663 4.0076294c1.4042053 0.08880615 3.353485 -0.08135986 5.8478394 -0.51049805c1.2471924 -0.21459961 2.3534546 -0.2913208 3.3188477 -0.23028564c0.96539307 0.06109619 1.7898865 0.26000977 2.4735107 0.5967407c2.7344055 1.3469849 4.74823 2.9418945 6.041443 4.784668c1.2932434 1.8427734 2.9930115 2.8308105 5.099304 2.9640503c5.6168213 0.3554077 13.321625 -1.6517944 23.114471 -6.0216064c9.792786 -4.369751 17.904114 -7.2317505 24.334045 -8.585876c4.1763916 -10.301453 9.562927 -20.23291 16.159668 -29.794312c6.5967407 -9.56134 11.983276 -19.492798 16.159668 -29.79425c5.727783 -1.3985596 9.247742 -4.110779 10.559814 -8.136658c1.3121338 -4.025879 2.7627563 -7.4560547 4.3519287 -10.290405c2.4022217 -4.5438843 5.3310547 -9.054443 8.786438 -13.531738c3.4554443 -4.477234 6.3842163 -8.987793 8.786499 -13.531738c3.104309 -4.4994507 5.709839 -9.470703 7.8165283 -14.913757c2.1066895 -5.443115 4.6937256 -10.12207 7.7610474 -14.036865c1.552185 -2.2497559 3.593933 -3.8815308 6.125305 -4.8953247c2.531311 -1.013794 4.5545654 -2.3532715 6.069763 -4.0183716c3.8064575 -4.455017 6.4212036 -9.572449 7.8442993 -15.352295c1.4230957 -5.779785 4.074829 -11.481873 7.955261 -17.106201c3.9174194 -6.2089844 7.5946045 -11.405945 11.031494 -15.590881c3.4368896 -4.1849365 5.451294 -10.954559 6.043213 -20.308868c-1.2562866 -2.4274292 -2.3554688 -4.551422 -3.2976074 -6.3719788c-0.9421997 -1.8205872 -2.0598755 -3.6522522 -3.3531494 -5.4950256c2.033081 -9.850128 1.645813 -20.440369 -1.1618652 -31.770721c-2.8076172 -11.330353 -10.086853 -18.834747 -21.837585 -22.513153c-11.787048 -14.246429 -25.440247 -26.849976 -40.959717 -37.81067c-15.51947 -10.960663 -30.299866 -22.461548 -44.341125 -34.502686c-7.316223 -6.919739 -14.4938965 -13.243713 -21.53302 -18.971954c-7.0391235 -5.728241 -14.253784 -11.46759 -21.643982 -17.218018c-3.3255615 -3.1453552 -6.4755554 -6.2795715 -9.450043 -9.40271c-2.9744873 -3.123108 -6.1245117 -6.2573547 -9.450073 -9.402679c-1.9953308 -1.887207 -6.21698 -4.795746 -12.665009 -8.725616c-6.447998 -3.9298706 -9.598022 -7.0641174 -9.450043 -9.402679c0.14794922 -2.3385925 3.3078003 -7.715027 9.479492 -16.129318c6.1717224 -8.414291 13.248779 -17.211548 21.231232 -26.391754c7.982422 -9.180206 15.761597 -17.93303 23.337524 -26.258484c7.5759277 -8.325439 12.5095215 -13.883148 14.800781 -16.673111c3.7694702 -3.8703918 6.8275757 -7.6390533 9.174316 -11.3059845c2.3467407 -3.666916 4.702759 -7.480011 7.067993 -11.439255c6.06073 -6.6603546 12.306213 -13.45578 18.736511 -20.386246c6.430298 -6.9304657 13.174805 -16.042252 20.233582 -27.33535c9.460205 -4.684311 16.611084 -11.862679 21.452576 -21.53511c4.8414917 -9.672424 7.539673 -18.893478 8.094543 -27.663147c0.62890625 -9.938961 -1.2735596 -18.864113 -5.7073975 -26.775452c-5.579773 -0.9400215 -10.780823 -2.296318 -15.603027 -4.068886c-4.8222656 -1.7725677 -10.041809 -2.8365402 -15.658569 -3.1919193c-3.510559 -0.22211075 -6.7162476 0.30879402 -9.617126 1.5927181c-2.900879 1.2839222 -5.755554 1.837038 -8.563965 1.6593494c-4.2125854 -0.2665329 -8.572998 -0.9826565 -13.081177 -2.1483688c-4.5081177 -1.1657124 -8.831543 -2.4664783 -12.970154 -3.9023018c-4.8407593 -1.4802456 -10.522095 -3.6006641 -17.044128 -6.3612556c-6.5219727 -2.7605906 -11.538208 -4.2519417 -15.048706 -4.4740534z" fill-rule="evenodd"/></g></svg>